<?xml version="1.0" encoding="utf-8"?>
<!-- Generator: Adobe Illustrator 25.3.1, SVG Export Plug-In . SVG Version: 6.00 Build 0)  -->
<svg version="1.1" id="Capa_1" xmlns="http://www.w3.org/2000/svg" xmlns:xlink="http://www.w3.org/1999/xlink" x="0px" y="0px"
	 viewBox="0 0 189.8 228.4" style="enable-background:new 0 0 189.8 228.4;" xml:space="preserve">
<style type="text/css">
	.st0{fill:none;stroke:#000000;stroke-width:5;stroke-linecap:square;stroke-linejoin:round;}
</style>
<g id="Capa_2_1_">
	<g id="Capa_1-2">
		<path class="st0" d="M186.1,79c-3.6-22.9-12.9-41.8-29.2-55.5l-8.7,8.7v12.1L130.9,53l10.4,15.5l1.7,3.4l1.7,3.5l13.8,6.9
			l-17.3-1.7c-2.3-4-4.6-8-6.9-12.1l-6.9-8.6l-8.6,8.6l-3.5,10.4l-19,8.6c4.6-4.6,9.2-9.2,13.8-13.8V65l25.9-24.2l5.2-1.7
			c-0.6-4.6-1.1-9.2-1.7-13.8c0.5-4.1,1-8.2,1.6-12.4c-1.3-0.7-2.6-1.4-4-2c-19-8.9-39.3-10.8-59.9-7.3c-31.7,5.3-54.6,22.2-67.3,52
			C3.1,71.5,1.7,88.3,2,105.5c0.2,10.4,2.7,20,8.3,28.7c1.7,2.7,2.4,6,1.8,9.1c-0.7,4.6-1.3,9.3-2.7,13.6c-1.4,4.3-1.2,8.9,0.5,13.1
			c1.4,4.1,3.5,7.9,6.1,11.3c6.1,7.7,12.6,13.4,24.3,7c4-2.1,6.4-0.5,7.7,3.3c1.8,5.2,3.4,10.4,3.3,16c-0.1,4,1.1,8,3.6,11.2
			c2.2,3.1,4,3.8,6-0.2c0.9-1.8,1.6-4,4.2-4.5c0.8,4-1.8,9.2,5.2,10.7c5.5,1.2,8-0.6,9.3-5.9c0.3,6.1,3.4,7.6,8.6,7.4
			c8.1-0.3,3.8-7.6,6.8-10.9c2.9,3.2-1.2,11,7.5,11c6.3,0,7.2-3.9,8.2-9.1c1.2,3.6,0,8.1,5,7.9c2.9-0.1,6.3,0,8.2-2.8
			c1.6-2.4,0-5.7,0.9-8.7c2.6,1.6,3.8,3.8,4.9,6c1.4,2.6,2.8,2.4,4.4,0.3c2.4-3.1,4.3-6.3,4.2-10.4c-0.2-5.7,1.3-11.2,3-16.6
			c2-6.2,3.6-6.8,9.5-4c5.1,2.5,10.1,3,15.2-0.1c10.9-6.7,16.8-21.5,13.7-34c-2.3-9-3.3-17.7,2.6-26.2c3.5-5,4.5-11.2,5.2-17.5
			C188.2,100.5,187.9,89.7,186.1,79z M76.5,152.7c-8.9,5.4-18.9,6.8-29.1,7c-4.8,0.2-9.6-0.3-14.3-1.6c-14.5-4.2-18.8-17.7-9.4-29.6
			c6.9-9,19-12.2,29.5-8c7.5,3,15,6.2,21.4,11.4c2.4,1.8,4.3,4.2,5.7,6.8C83.4,144.8,82.3,149.3,76.5,152.7z M97.3,173.9
			c-1.9-1.7-3.2-1.7-5,0c-2.6,2.4-5.5,4.5-9.2,7.5c0.4-12.2,5-21.2,11.8-30c6.8,8.7,11.3,17.7,11.9,29.2
			C102.5,178.8,100,176.2,97.3,173.9z M150,159.4c-2.5,0.2-5,0-7.5,0c-9.6,0.3-18.8-1.3-27.4-5.6c-8.3-4.2-9.9-11.4-3.6-18.1
			c8.7-9.4,20.1-14.8,32.5-16.9c12.8-2.2,26,9.5,26.9,22.4C171.5,150.7,162.8,158.4,150,159.4z"/>
	</g>
</g>
</svg>
