<svg xmlns="http://www.w3.org/2000/svg" viewBox="0 0 142.74 227.99"><defs><style>.cls-1{fill:#fcfcfc;}.cls-2{fill:#282828;}.cls-3{fill:#040404;}.cls-4{fill:#050505;}.cls-5{fill:#070707;}.cls-6{fill:#060606;}.cls-7{fill:#0c0c0c;}.cls-8{fill:#0a0a0a;}.cls-9{fill:#080808;}.cls-10{fill:#efdea6;}.cls-11{fill:#313131;}.cls-12{fill:#303030;}.cls-13{fill:#272727;}.cls-14{fill:#3a3a3a;}.cls-15{fill:#d2d2d2;}.cls-16{fill:#4c4c4c;}.cls-17{fill:#484848;}.cls-18{fill:#333;}.cls-19{fill:#434343;}.cls-20{fill:#1b1b1b;}.cls-21{fill:#bababa;}.cls-22{fill:#cbcbcb;}.cls-23{fill:#525252;}.cls-24{fill:#4b4b4b;}.cls-25{fill:#555;}.cls-26{fill:#121212;}.cls-27{fill:#646464;}.cls-28{fill:#737373;}.cls-29{fill:#0e0e0e;}.cls-30{fill:#202020;}.cls-31{fill:#020202;}.cls-32{fill:#010101;}.cls-33{fill:#464646;}.cls-34{fill:#868686;}.cls-35{fill:#2b2b2b;}.cls-36{fill:#676767;}.cls-37{fill:#1a1a1a;}.cls-38{fill:#252525;}.cls-39{fill:#777;}.cls-40{fill:#d8d8d8;}.cls-41{fill:#515151;}.cls-42{fill:#323232;}.cls-43{fill:#404040;}.cls-44{fill:#454545;}.cls-45{fill:#292929;}.cls-46{fill:#0b0b0b;}.cls-47{fill:#383838;}</style></defs><g id="Capa_2" data-name="Capa 2"><g id="Capa_3" data-name="Capa 3"><path class="cls-1" d="M73.94,226a23.34,23.34,0,0,1-9.78-2.24,20,20,0,0,1-4.31.46,18.9,18.9,0,0,1-5-.65c-3.26-.89-6.41-1.88-9.47-2.85L42,219.65l-1.26-.39-8.37-4.77c-7.84-4.46-12-12.21-10.8-20.23a17.75,17.75,0,0,0-1.83-3.81c-.64-1.13-1.37-2.41-2-3.81a81,81,0,0,1-4.8-11.76l-1.29-3.51C8,167.78,4.77,162.21,5,153.72c.13-6,.07-12.21,0-17.46a11.38,11.38,0,0,0-.82-4.73C1,124.69,1.35,116.6,5.24,109.34A26.87,26.87,0,0,1,24.55,95.18c1.39-.21,2.94-.57,4.58-1,1.14-.26,2.33-.53,3.57-.78a41.73,41.73,0,0,1,.16-4.56l0-.64.12-.64c1.11-5.69.75-11.93.36-18.53-.26-4.51-.54-9.17-.38-14a48.34,48.34,0,0,1,2.2-11.8,31.12,31.12,0,0,0,1.34-6.19c0-.39,0-.77,0-1.15.09-3.06.23-7.73,2.58-12.41a23.06,23.06,0,0,1,.74-3.3C40.35,11.45,45.68,4.67,54,2.58A19.3,19.3,0,0,1,58.65,2,17.39,17.39,0,0,1,74.8,12.89c2.67,5,2.27,9.85,2,12.54,0,.35-.07.79-.08,1.08,1.46,7.51.56,14.42-.24,20.55-.11.86-.22,1.72-.32,2.58-.08.66-.11,1.55-.13,2.5a17.68,17.68,0,0,1,2.12,9.64l0-.21,0-.23a21.24,21.24,0,0,1,2.89-6.55l.44-5,3.15-3.11c1.84-1.82,3.13-4.88,4.63-8.43a76.68,76.68,0,0,1,3.81-8.08l1.62-2.92a148.3,148.3,0,0,1,7.72-12.86A18.88,18.88,0,0,1,118.17,6a19.36,19.36,0,0,1,9.08,2.29c8.14,4.26,11.65,12.43,9.39,21.86C134.11,40.61,131.3,50.86,125,60.41a81,81,0,0,0-1.49,8.49,18.74,18.74,0,0,1-1.65,8.2,41.82,41.82,0,0,1-4.13,7.23,29.79,29.79,0,0,1,8.92,11c2.38,4.83,3,5.29,4.4,5.91,7.67,3.4,11.39,12.25,9,21.54-.41,1.62-.8,3.24-1.2,4.87l-.05.21,1.31,11.72-1.56,2.85c-.05.34-.11.88-.16,1.3a37.65,37.65,0,0,1-.58,3.94c-1.92,9-7,15.44-11,20.62l-1.42,1.83a135.82,135.82,0,0,0-15.18,23.82,29.63,29.63,0,0,1-6.74,8.62,21.16,21.16,0,0,1-13.3,16A21.6,21.6,0,0,1,73.94,226Z"/><path class="cls-2" d="M73.94,228h0a25,25,0,0,1-10-2.16,21.53,21.53,0,0,1-9.56-.34c-3.29-.89-6.47-1.9-9.54-2.86l-.41-.13-3-.94L39.79,221l-8.37-4.77c-8.45-4.8-13-13.15-11.84-21.85-.27-.7-1.18-2.3-1.54-2.94-.66-1.16-1.4-2.47-2.1-3.94a83.62,83.62,0,0,1-4.9-12l-1.12-3.05c-4.79-4.86-7.13-11.18-7-18.79.13-6,.07-12.16,0-17.39a9.73,9.73,0,0,0-.63-3.91c-3.47-7.42-3-16.17,1.14-24A28.9,28.9,0,0,1,24.25,93.21c1.32-.2,2.83-.55,4.43-.92l2-.46c0-1,.07-2.06.16-3.11l.09-.86.12-.63c1.06-5.44.7-11.56.32-18-.26-4.56-.54-9.26-.38-14.2a50.09,50.09,0,0,1,2.27-12.27A30,30,0,0,0,34.55,37l0-1c.1-3.29.25-8.09,2.66-13.06a24,24,0,0,1,.69-3c.57-9.6,6.53-17,15.61-19.23A20.86,20.86,0,0,1,58.65,0a19.49,19.49,0,0,1,18,12,23.49,23.49,0,0,1,2.23,13.57c0,.25,0,.54-.06.79,1.45,7.73.54,14.74-.26,20.94l-.33,2.56c0,.46-.08,1.1-.1,1.79a18.06,18.06,0,0,1,1.09,2.56l.06-.1.46-5.3,3.67-3.62c1.56-1.54,2.78-4.44,4.2-7.79a81,81,0,0,1,3.9-8.28c.52-.92,1-1.83,1.53-2.75l.09-.16a150,150,0,0,1,7.82-13A20.84,20.84,0,0,1,118.17,4a21.38,21.38,0,0,1,10,2.51c9,4.72,12.89,13.73,10.4,24.1-2.54,10.58-5.35,20.89-11.77,30.67-.56,2.29-.93,4.8-1.35,7.8a20.46,20.46,0,0,1-1.84,8.91,39.27,39.27,0,0,1-3.25,6,32.43,32.43,0,0,1,8,10.53c2.19,4.43,2.57,4.6,3.42,5,8.58,3.8,12.76,13.61,10.16,23.86-.39,1.53-.76,3.07-1.14,4.61l0,.11,1.35,12-1.69,3.08c0,.28-.07.6-.1.87a38.09,38.09,0,0,1-.62,4.14c-2,9.44-7.22,16.1-11.4,21.44l-1.42,1.82a134.35,134.35,0,0,0-15,23.47,30.65,30.65,0,0,1-6.71,8.76,23,23,0,0,1-14,16.63A23.41,23.41,0,0,1,73.94,228Zm-9.55-6.34.61.28A21.18,21.18,0,0,0,73.94,224a19.58,19.58,0,0,0,14.7-6.82l.31-.33.42-.17a19.23,19.23,0,0,0,12.09-14.49l.12-.63.47-.44a27.69,27.69,0,0,0,6.31-8,137.78,137.78,0,0,1,15.39-24.17l1.43-1.84c3.94-5,8.83-11.28,10.65-19.81a34.44,34.44,0,0,0,.55-3.73c.05-.46.12-1,.17-1.39l0-.35,1.43-2.61-1.28-11.44.2-.8c.37-1.55.75-3.1,1.15-4.65,2.1-8.32-1.15-16.22-7.91-19.21-2.15-.95-3-2-5.38-6.86A27.61,27.61,0,0,0,116.49,86l-1.56-1.16,1.1-1.6A39.27,39.27,0,0,0,120,76.3a16.71,16.71,0,0,0,1.49-7.37v-.15l0-.15A80.87,80.87,0,0,1,123,59.92l.08-.33.19-.29c6.2-9.32,8.93-19.35,11.41-29.67,2-8.48-1.09-15.81-8.36-19.62A17.43,17.43,0,0,0,118.17,8a16.93,16.93,0,0,0-14,7.53,146.64,146.64,0,0,0-7.61,12.68l-.09.17c-.51.92-1,1.85-1.54,2.77A75.7,75.7,0,0,0,91.26,39c-1.59,3.75-3,7-5.08,9.08l-2.62,2.59-.42,4.82-.27.42a19.22,19.22,0,0,0-2.62,5.94l-.09.36-4-.52a15.72,15.72,0,0,0-1.88-8.55l-.26-.47V52.1c0-1,0-1.94.14-2.7l.33-2.6c.77-6,1.65-12.72.26-19.91l0-.24v-.24c0-.3.06-.77.09-1.14.21-2.6.57-6.95-1.82-11.44L73,13.68A15.36,15.36,0,0,0,58.65,4a16.83,16.83,0,0,0-4.14.52c-7.38,1.85-12.21,7.9-12.6,15.79l0,.24-.06.23a21.58,21.58,0,0,0-.68,3l0,.33-.15.29C38.8,28.69,38.67,33.08,38.58,36v.1c0,.36,0,.71,0,1.07a31.7,31.7,0,0,1-1.41,6.65A47.1,47.1,0,0,0,35,55.12c-.15,4.76.11,9.37.38,13.83.39,6.75.76,13.11-.39,19l-.11.53,0,.54a40.46,40.46,0,0,0-.15,4.35l0,1.66-1.63.34c-1.21.24-2.37.51-3.48.76-1.72.4-3.3.77-4.77,1A24.88,24.88,0,0,0,7,110.28c-3.59,6.7-4,14.14-1,20.41a13.17,13.17,0,0,1,1,5.54c.07,5.27.13,11.47,0,17.54-.14,6.63,1.91,12.07,6.09,16.17l.33.31,1.48,4.05a80.4,80.4,0,0,0,4.69,11.47c.65,1.35,1.35,2.6,2,3.7,1.41,2.48,2,3.75,2.09,4.69v.2l0,.2c-1.06,7.18,2.7,14.15,9.81,18.19l8.18,4.67,1.05.32,3,.94.4.13c3,1,6.18,1.95,9.4,2.82a17.54,17.54,0,0,0,8.31.16Z"/><path class="cls-1" d="M126.14,112.22c-5.48-2.43-7.68-6.28-10.3-11.58-2.44-5-7.71-11.19-16.6-7.88,1.13-2.69,1.79-4.54,2.65-6.3,2.48-5.08,6.75-9,9-14.29a7.64,7.64,0,0,0,.58-3.9,81.76,81.76,0,0,1,2.5-13c6-8.38,8.66-18.08,11-27.94.91-3.81,0-6.68-3.28-8.42a6.86,6.86,0,0,0-9.27,2.31c-3.26,4.7-5.93,9.81-8.74,14.81-3.57,6.35-5.06,13.84-10.47,19.18-.12,1.33-.23,2.65-.35,4A13.58,13.58,0,0,0,90,64.2c-2,9.87-7.81,18-12.31,26.7A5.5,5.5,0,0,0,76,94.19c-1.65,2.11-1.7,6.19-6.08,5C67.79,96,70.45,92,68.13,88.85,65.86,80.14,64,71.42,66,62.34a5.86,5.86,0,0,0-1-5.23h0c-.32-1-.65-2-1-3,.08-2,0-3.93.26-5.87.81-6.65,2-13.28.58-20a.85.85,0,0,1-.29-.39l.29.39C64.36,24.87,66,21.34,64,18.13c-1.22-3.33-3.86-4.71-7-3.91-3.9,1-5.29,4.11-5,8a10.58,10.58,0,0,0-.91,5c-2.53,3-2.31,6.75-2.46,10.36-.27,6.15-3.33,11.81-3.53,17.87-.38,11.48,2,23-.2,34.45A22.49,22.49,0,0,0,46.26,101c.81,1.86,1.29,4.26-1.54,3.78-6.46-1.09-12.27,1.37-18.38,2.3-8.42,1.27-14.9,11.75-11.32,19.42A22.77,22.77,0,0,1,17,136.09c.09,6,.13,11.93,0,17.89-.09,4.29,1.17,7.79,4.85,10.22.84,2.3,1.68,4.59,2.53,6.89a69.14,69.14,0,0,0,4.22,10.35c2.17,4.49,5.81,8.68,4.94,14.58-.49,3.31,1.72,6.26,4.85,8q3.63,2.06,7.24,4.13c4.15,1.28,8.28,2.65,12.47,3.8a7.77,7.77,0,0,0,3.92-.06,9.64,9.64,0,0,1,7.12.87c5.52,2.61,10.34.86,13.89-4.61,6-1.26,9.12-4.87,8.89-11.13,2.55-2.76,5.92-5.12,7.49-8.35a148.66,148.66,0,0,1,16.47-25.91c4.14-5.39,8.7-10.52,10.22-17.64.57-2.65.33-5.53,1.69-8q-.55-5-1.13-10.07c.6-2.41,1.18-4.83,1.79-7.24C129.17,116.8,128.61,113.31,126.14,112.22Zm-46.5,82c0-.06,0-.12,0-.18l.27.15Zm-45.45-30,.05-.12,0,.07Zm61.94-29.81v-.05h0ZM67.9,138.08s0,0,0,0l0,0h0v0l0,0Zm-16,27.78,0,0v0Zm28.19-46.37v0h0Zm-28-.12,0-.17.25,0Zm-3.14,44.69,0-.06.21-.24a2.58,2.58,0,0,1,0,.4Zm36.8-53.17a5.43,5.43,0,0,0,0,.67,10.56,10.56,0,0,0-1.09-1.3h0c.6,0,1.1,0,1.54,0C86,110.47,85.87,110.68,85.72,110.89Zm-31.81-4v.23l-.11-.2ZM32.22,173.16l-.26.06c0-.08,0-.17,0-.25Zm3,4.12H35c0-.06,0-.11,0-.16Zm27.37,20c.07.12.11.24.17.36a1.73,1.73,0,0,1-.36-.05Zm17.36-4.4a2.79,2.79,0,0,1,.38,1.22h-.1C79.84,193.53,79.79,193.15,79.92,192.89Zm-1-86.43v.09h0l-.07,0A.18.18,0,0,0,78.88,106.46ZM32.16,120.18h0l0-.08S32.15,120.15,32.16,120.18Zm46.67,81.73h0l0,.08ZM49.22,91.27v.12l-.12,0Z"/><path class="cls-3" d="M110.86,72.17c-2.22,5.25-6.49,9.21-9,14.29-.86,1.76-1.52,3.61-2.65,6.3,8.89-3.31,14.16,2.93,16.6,7.88,2.62,5.3,4.82,9.15,10.3,11.58,2.47,1.09,3,4.58,2.26,7.61-.61,2.41-1.19,4.83-1.79,7.24-.64,1.27-.67,3.15-2.44,3.41s-2.28-1.48-2.9-2.8a16.65,16.65,0,0,1-.62-2.05,8.62,8.62,0,0,1-.35-2.08c.9-6.93.9-6.93-5.62-9.5-1.79-.76-2.22-3-4.06-3.71-1,0-2,.53-3.07.25a1.41,1.41,0,0,1-.93-1.55c.56-1.28,1.8-1.82,2.87-2.54,1.46-1,1.92-2.16.61-3.63-1.54-1.28-3.15-2.47-4.59-3.84s-2.37-.6-3.33.51c-5.15,3.84-7.64,10-12.4,14.17a3,3,0,0,1-1.23.74c-1.91-.42-3.19-1.34-2.83-3.56,3.06-4.45,4.41-9.64,5.76-14.71,2.12-8,6-15,10.66-21.71,3.89-5.58,3.79-5.64-1.91-8.9a2,2,0,0,1-.78-1.23,1.85,1.85,0,0,1,1.14-1.74c2.17-.44,4.45.19,6.59-.68,2.73-.14,4.07,1.39,4.11,3.88C111.32,67.92,111.87,70.11,110.86,72.17Z"/><path class="cls-4" d="M21.8,164.2c-3.68-2.43-4.94-5.93-4.85-10.22.13-6,.09-11.92,0-17.89A22.77,22.77,0,0,0,15,126.47c-3.58-7.67,2.9-18.15,11.32-19.42,6.11-.93,11.92-3.39,18.38-2.3,2.83.48,2.35-1.92,1.54-3.78A22.49,22.49,0,0,1,44.81,89.9a10.7,10.7,0,0,0,4.6,1.51c1.55,3.82,1.72,8.36,5.73,10.88a2.06,2.06,0,0,1,1,1.63c-.18,1.46-4,1.12-1.87,3.74a2.34,2.34,0,0,1-.52,1.29c-3,2.07-6.55,2.27-9.94,2.21-10.23-.2-10.22-.32-11.72,9-2.58.68-3.67-.93-4.31-3-1-3.33-2.64-2.74-4.6-.85s-3.34,4.35-2.32,7.13c3.14,8.67,2.36,17.65,2.42,26.56.06,7.9.46,8.49,7.85,10.89,1.48.48,2.8,1,3.22,2.71-1.09,3.43-4,1.1-5.94,1.89A7.24,7.24,0,0,1,21.8,164.2Z"/><path class="cls-3" d="M93.21,55.17c5.41-5.34,6.9-12.83,10.47-19.18,2.81-5,5.48-10.11,8.74-14.81a6.86,6.86,0,0,1,9.27-2.31c3.33,1.74,4.19,4.61,3.28,8.42-2.37,9.86-5,19.56-11,27.94-1.9,1.17-3.58,1.31-4.74-1-.43-2.65.84-4.8,2.15-6.9,1.15-1.84,2.21-3.67,1.93-6a4.16,4.16,0,0,1,.29-1.39,34.47,34.47,0,0,0,4.74-14.37c-3.44,3.77-6.67,7.61-8,12.72-.26,1.24-1.24,2-2,2.9-1.91,2.5-2.68,5.54-3.93,8.35s-2.53,5.71-5.94,6.64C96.61,56.48,94.73,56.7,93.21,55.17Z"/><path class="cls-3" d="M127.74,137.14c-1.36,2.49-1.12,5.37-1.69,8-1.52,7.12-6.08,12.25-10.22,17.64a148.66,148.66,0,0,0-16.47,25.91c-1.57,3.23-4.94,5.59-7.49,8.35-1,1.3.06,4-2.45,4.12s-3.06-2.49-4.35-4c-.76-1.05-2.5-1.38-2.36-3.11.93-1.09,2.31-1.22,3.56-1.57,2.34-.66,2-2.17,1.37-3.85.47-1.33,1.65-1.51,2.8-1.74,1-.17,2.08-.27,2.58-1.27,4.43-8.92,11.17-16.35,16.1-24.89,2.26-3.92,4.53-7.44,8-10.28,1.2-1,1.43-2.58,1.72-4.05a16.89,16.89,0,0,1,.87-2.6c.73-2.13,1.08-4.42,2.43-6.32C123.82,134.19,125.68,133.8,127.74,137.14Z"/><path class="cls-3" d="M49.22,91.27c-2.23,2-3.47.8-4.41-1.37,2.24-11.48-.18-23,.2-34.45.2-6.06,3.26-11.72,3.53-17.87.15-3.61-.07-7.32,2.46-10.36.63-.63.29-2.3,1.59-2a4.18,4.18,0,0,1,3.28,3.73c0,2.43-1.06,4.91.36,7.27.1,1.28-.86,2.14-1.27,3.22-.57,6.07-3.47,11.74-3,18,.19,1.65-.38,3.2-.56,4.81,1.39,8.65,1.11,17.31.19,26C51.45,89.69,52,91.79,49.22,91.27Z"/><path class="cls-5" d="M45.58,208.19q-3.61-2.07-7.24-4.13c-3.13-1.78-5.34-4.73-4.85-8,.87-5.9-2.77-10.09-4.94-14.58a69.14,69.14,0,0,1-4.22-10.35c2-1.27,4-.27,6.07,0a3,3,0,0,1,1.72,1.25c-.69,2.73.55,4.44,3,5.5a3.11,3.11,0,0,1,.54,1.22c-.39,3.41,1.89,5.84,3.18,8.64.89,2.9-.1,6,1,8.89a4.45,4.45,0,0,0,2.4,2c2.82,1.67,5.19,4.28,8.84,4.26,1.53,1.09,1.39,2.54.86,4.07a3.28,3.28,0,0,1-.9,1.27A8.84,8.84,0,0,1,45.58,208.19Z"/><path class="cls-6" d="M93.21,55.17l6,.12c-.66,2.8,2.8,5,1.16,7.93-.14.18-.27.38-.4.57-3.65,1.51-5.4,4.3-5.9,8.17-.54,4.19-4,7.34-4.83,11.2S86,89.23,83.65,91.79a4.15,4.15,0,0,1-2.57,1.37c-1.56-.12-3.47.29-3.43-2.26C82.15,82.18,88,74.07,90,64.2c2.65-.71,2.23-3.2,2.9-5.05Z"/><path class="cls-7" d="M45.58,208.19c1.79-.46,3.93.61,5.41-1.23,1.92-.61,4-.12,5.91-.81,2.48.29,4.87-.34,7.28-.73a31.7,31.7,0,0,0,6.68,1.79c5.27,1.95,6.48-2.09,8.11-5.51a2.85,2.85,0,0,1,2.29,0c2.42,1.68,3.42,3.72,1.72,6.49-3.55,5.47-8.37,7.22-13.89,4.61a9.64,9.64,0,0,0-7.12-.87,7.77,7.77,0,0,1-3.92.06C53.86,210.84,49.73,209.47,45.58,208.19Z"/><path class="cls-8" d="M65,57.11a5.86,5.86,0,0,1,1,5.23c-2.07,9.08-.18,17.8,2.09,26.51.53,2.38-.39,4.42-2.48,5.17-1.6.56-2.05-1.63-2.9-2.71-2.66-8.46-6-16.84-2.94-25.95C62.06,62.94,61.29,58.61,65,57.11Z"/><path class="cls-8" d="M64.87,28.21c1.45,6.71.23,13.34-.58,20-.23,1.94-.18,3.91-.26,5.87-.11,2.28-.74,4.25-3,5.31a2.9,2.9,0,0,1-1.09-1.08C58,54.36,58.75,50.13,58.61,46c-.06-2.36.72-4.69.24-7.07a7.35,7.35,0,0,1-.32-2.76,13.07,13.07,0,0,0,1.08-4,11.39,11.39,0,0,1,.68-4.41c.58-1.25,1.5-2.47,2.86-2.52C65.19,25.12,63.85,27.43,64.87,28.21Z"/><path class="cls-8" d="M69.88,99.16c4.38,1.22,4.43-2.86,6.08-5,3.42,1,1.66,4.37,2.91,6.37a26.25,26.25,0,0,1,.71,4.39,3.18,3.18,0,0,1-.44,1.32c-2.66,2.3-5.48-.73-8.18.26a2.53,2.53,0,0,1-1.28-.18c-1.93-2.53-4.76-1.15-7.17-1.62a3.94,3.94,0,0,1-2.17-4.27,4.3,4.3,0,0,1,2.42-2.62C65.13,98.29,67.59,98.24,69.88,99.16Z"/><path class="cls-9" d="M51.91,22.22c-.26-3.89,1.13-7,5-8,3.18-.8,5.82.58,7,3.91,1,4-2.24,2-3.64,2.63A6.46,6.46,0,0,0,56.7,21C55.08,21.33,53.78,22.94,51.91,22.22Z"/><path d="M109.77,53.05c.18,3.05,2.53,1.93,4.17,2.18-1.71,5.52-2.17,11.27-3.08,16.94-.06-2,0-3.9-.21-5.83-.24-2.3-1.13-4-4-3.29-1.11-3.33.62-6.35,1.07-9.5C107.88,52.68,108.94,52.61,109.77,53.05Z"/><path d="M83,208.19a7.06,7.06,0,0,0-2.14-5.93C84,201.35,84.59,198.4,86,196c.24.21.6.37.71.64.57,1.48.62,3.6,2.52,3.82,2.23.27.94-2.91,2.69-3.44C92.1,203.32,89,206.93,83,208.19Z"/><path d="M59.89,20.23c.92-1.56,3.7.51,4.09-2.1,2,3.21.38,6.74.89,10.08L63.21,26c-.72.83-1.82,1.56-2.08,2.51a23.92,23.92,0,0,0-.32,4.81C57.82,30.36,57.46,25.32,59.89,20.23Z"/><path d="M69.88,99.16c-2.39.65-4.79,1.39-6.75-1a6.44,6.44,0,0,1,.77-7c1.88,2.44,2.08,2.34,4.23-2.31C70.45,92,67.79,96,69.88,99.16Z"/><path d="M127.74,137.14c-1.95-1.34-3.78-2.13-4.77,1-2.57-3.5-3.68-7.14-1-11.1,1.52,5,3.06,1,4.59,0Z"/><path d="M31,172.07a16.78,16.78,0,0,1-6.66-1L21.8,164.2c2.09-.66,4.2,1.55,6.29,0C29.28,166.72,31.08,169.05,31,172.07Z"/><path d="M51.91,22.22c1.53-.87,2.73-2.53,4.83-2.08,2.44,4.56,2,6.67-1.78,9.1-.92-1.45-.93-4.7-4-2A10.58,10.58,0,0,1,51.91,22.22Z"/><path d="M78,101.27c-1.82-2-.12-5.08-2.05-7.08a5.5,5.5,0,0,1,1.69-3.29c1.17,1.49,3,.94,4.45,1.4A8.89,8.89,0,0,1,78,101.27Z"/><path d="M60.84,59.25,64,54.07l1,3c-1.66,2.54-1.41,6-4,8.09C59.26,63.26,59.31,61.27,60.84,59.25Z"/><path d="M92.86,59.15c.87,2.74,2,5.64-2.9,5.05A13.58,13.58,0,0,1,92.86,59.15Z"/><path class="cls-10" d="M78,101.27l4.09-9A62.33,62.33,0,0,0,93.85,67.91c.73-3.13,2.08-5.69,6.09-4.12.13.29.19.78.39.84,7.82,2.45,8.34,3.35,3.07,10-7.19,9.11-9.91,20-13.43,30.65-1.58,4.77-1.89,5.07-5.39,5a1.38,1.38,0,0,1-1.25-.25c-1.35-1.73-3.35-2.89-4.41-4.9C78.5,103.86,77.65,102.71,78,101.27Z"/><path class="cls-10" d="M114.86,113.13a9.73,9.73,0,0,0,1.37.49c8.5,1.63,8.88,2.56,4.27,10.38-1.16,2.52-4,2.47-5.88,4-2.16,2.08-1,5.62-3.33,7.61-1.47,1.27-3,1-4.53.17a19.82,19.82,0,0,0-4.81-2.61c-3.44-1.69-2.52-3.7-.42-5.79,3.77-2.56,6.57-5.69,7.52-10.42C109.61,114.13,111,111.45,114.86,113.13Z"/><path class="cls-10" d="M109.77,53.05c-2.25,3-1.45,6.85-3.08,10-2.06,2.11-4.24-.14-6.35.17-.53-2.63-5.07-4.66-1.16-7.93,3.15-2.7,4.24-6.55,5.67-10.21.71-1.83,1-3.88,3-4.95,2.11-.2,4,.71,6.09.89,1.87,1.59,1,3.12,0,4.76C112.48,48.16,111.16,50.62,109.77,53.05Z"/><path class="cls-10" d="M89,112.94c3.08-3.85,6.14-7.73,9.27-11.54.9-1.1,1.64-2.6,3.5-2.3a2.15,2.15,0,0,1,3.34.56c1.41,2.32,3.73,1.94,5.77,2.48,3,1.43,2.28,3.12.21,4.7a42.37,42.37,0,0,1-4.14,2.53c-2.51,3.17-7,4-9.14,7.55C94.23,117,90.86,116.66,89,112.94Z"/><path class="cls-10" d="M84.45,110.19l.13.07c1.41,1.36,2.13,3.46,4.28,4,3,.91,5.73,2.31,8.72,3.12a3,3,0,0,1,1.69,3.17c-.94,1.76-2.53,1.61-4.14,1.44a56.9,56.9,0,0,1-9.53-2.51,19.44,19.44,0,0,0-13.67-3.31c-2-3.17-1.72-6.6-1.14-10.07.32-1,1.15-3,1.8-1.95,1.68,2.69,4.33,1.35,6.29,2.37C81.42,106.71,82.68,108.83,84.45,110.19Z"/><path class="cls-10" d="M122,127.06c-.78,3.8.82,7.39,1,11.1A14.49,14.49,0,0,0,120.8,144c-5.45,2-9.2-.35-9.88-6.21,1.3-2.74,1.3-6,3.08-8.54,2.08-2.35,4.29-4.48,7.82-4Z"/><path class="cls-10" d="M107.92,110.17l2.93-1.4c2.38.53,1.82,2.5,1,3.45-2,2.42-2.62,5.22-3.38,8.14-.9,3.41-3.94,5.19-6.65,7.1-2.36,1.66-2.64,5.39-6,6a1.87,1.87,0,0,1-1.33-.51c-1.27-2.35-.17-4.2,1.24-6,1.53-2,1.16-5.12,3.81-6.46.12-4.3,1.74-7.49,6.25-8.55A3.18,3.18,0,0,0,107.92,110.17Z"/><path class="cls-11" d="M107.92,110.17c-.73.88,2.76,2.32,0,2.51-5.53.38-7,4.08-8.09,8.39a1.48,1.48,0,0,1-.87-.91c-.1-1.29-1.16-1.7-2.06-2.25-.23-.87.25-1.33,1-1.67,1.06-4.89,5.78-4.93,9.08-6.87Z"/><path class="cls-12" d="M100.93,127.28c7.09-3.29,6.85-11.4,10.9-16.7.48-.63,0-1.58-1-1.81,1.09-1.07,2-.55,2,.66,0,1.74,1,2.71,2.06,3.7-2.77,0-4.21,1.51-4.59,4.16-.73,5.2-3.84,8.57-8.36,10.85C101,128.52,100.71,128.19,100.93,127.28Z"/><path class="cls-10" d="M110.88,102.14c-2.28,1.25-4.62,3.25-5.89-1.19-.36-1.26-1.82-1.79-3.22-1.85.71-3.09,2.29-3.27,4.46-1.3C107.8,99.22,109.33,100.69,110.88,102.14Z"/><path class="cls-13" d="M121.82,125.19c-2.69.67-4.73,2.41-6.79,4.11-1.84,0-1.81-1-1.22-2.25l6.69-3Z"/><path class="cls-11" d="M97.87,116.24l-1,1.67c-2.81-.93-5.91-1.21-8.06-3.62l.14-1.35C91.78,114.51,94.61,116,97.87,116.24Z"/><path class="cls-10" d="M34.28,164.12c-.83-2.14-2.73-2.05-4.55-2.25-5.77-.62-7.68-2.78-7.68-8.73,0-7.6.6-15.23-.83-22.77a30.68,30.68,0,0,0-.92-3.84c-2.39-7.35-2-8.13,3.93-13,3.16-2.57,4.32-.62,4.49,1.9s.89,4.18,3.44,4.74a1,1,0,0,1,1.29.18c2.76,4,2.5,8,1,12.7-2.2,7.09-3.12,14.41,3.7,20.1a11.73,11.73,0,0,1,3.61,5.29c.58,3,.74,5.83-2.57,7.49C37.12,166.61,35.1,167,34.28,164.12Z"/><path class="cls-10" d="M60.84,59.25l.14,6c-2.51,9,.71,17.44,2.92,26,0,2.37.3,4.78-.77,7l-2.18,2c-2.41.15-3.86,2.37-6.12,2.83-3.66-1-5.89-5.69-5.61-11.79.8-.08,1.91,0,1.78-1.15-1.08-9.59,1-19.27-1-28.82,4-4.31,7.35-4.95,10.93-2.12Z"/><path class="cls-10" d="M32.81,120.09l-.65.09c-2.65-8.44-.4-11.23,8.55-10.63,4.49.31,8.93.21,13.19-1.52A13.15,13.15,0,0,1,63,104.21c2.62-.34,5.95-3.26,7.07,1.92,2.41,9.46,1.92,10-8,9.41-3.73-.23-7.49-.51-9.86,3.34-3.23,1.58-6.66,2.66-10,4C38.24,124.62,35,124.23,32.81,120.09Z"/><path class="cls-10" d="M34.28,164.12c1.07.52,1.79,2.32,3.38.91,4.32,1.65,3.64-2.53,5-4.31,1.38-1.27,2.62-1.08,3.74.36a4.67,4.67,0,0,1,.28,3.57c-2.52,2.35-.79,5.51-1.52,8.2-.16,1.79-.44,3.53-2,4.7a4.76,4.76,0,0,1-1.44.59,11.69,11.69,0,0,1-6-.32c-1.06-1.62-4.43-1.53-3.46-4.66L31,172.07c-1.58-2.41-3.55-4.67-2.9-7.9C30.14,162.43,32.22,165.5,34.28,164.12Z"/><path class="cls-14" d="M63,104.21A26.77,26.77,0,0,1,53.9,108v-1.19a1.73,1.73,0,0,1,1.7-1.8c1.33-.17.66-.61.26-1.08l-1-.9c2-1,2.92-4.39,6.12-2.83A5.8,5.8,0,0,0,63,104.21Z"/><path class="cls-15" d="M55.87,104c.46.06,1.05,0,1.37.21.88.71,0,.93-.46,1.18-1,.52-1.91,1-2.87,1.49-.76.13-1.66.76-2.21-.15s.13-1.59.89-1.89A25.42,25.42,0,0,1,55.87,104Z"/><path class="cls-10" d="M109.71,38.49c-1.74-1.21-1.18-2.37,0-3.66a34.86,34.86,0,0,0,5.95-9.5c.62-1.46,1.71-2.72,3.39-2.21,1.86.57,1.55,2.17,1.06,3.69-1.36,4.2-2.63,8.44-4,12.63-.33,1-1.43.52-2.19.66C112.21,40.24,110.7,40.05,109.71,38.49Z"/><path class="cls-16" d="M109.71,38.49c1.31.72,3.14.12,4.15,1.61a1,1,0,0,1,.07.92c-2.32,1.73-4-.85-6.09-.89Z"/><path class="cls-10" d="M88,188.9c3.12,1.38,3.3,2.87.09,4.35a9.45,9.45,0,0,1-5,.9,2.47,2.47,0,0,1-2.75.37c-.14-3.94-3.78-1.64-5.37-3-1-.58-.85-1.94-1.7-2.68-.64,1.18-.91,2.45-1.47,3.59a5.46,5.46,0,0,1-2.48,2.5c-2.55,1.4-5.12,2.73-7.78.21-.56-.38-1.1-.81-1.63-1.23-2-1.64-4.59-1.37-6.82-2.22a3,3,0,0,1-1.63-2.23c-.22-2-.86.79-1.2-.1-2.8-1.15-2.25-3.32-1.7-5.5a8.38,8.38,0,0,1,.8-2c2.37-2.36,5.2-4.39,5.78-8,.9-2.3,1.9-4.5,4.61-5.17a4.67,4.67,0,0,1,3.38,1c2.06,2.25,4.89,4.26,2.44,7.93-.35.54-.44.94-.18.33,0-.06.6,0,.93-.11.48-.26.8,1.22,1.13.24a19.89,19.89,0,0,1,1.71-3.79c2-2.55,4.13-2.46,6.41-.46a8.73,8.73,0,0,0,3.22,2.28,5.4,5.4,0,0,1,1.71,1.2c1.46,1.68,2.5,3.7,4.06,5.31C86.4,184.3,87.08,186.66,88,188.9Z"/><path class="cls-10" d="M119.8,146.23c.19,1.87.11,3.83-1.37,5.07-9.2,7.7-13.45,18.93-20.34,28.28-1.51,2-4.06,3.4-3.56,6.8.23,1.63-1.82,2-3.45,1.56-3.75-.76-5.84-3-6-6.87,1.77-4.34,6.52-5.82,9-9.47.46-.55.92-1.1,1.35-1.67,4.09-5.49,7.93-11.15,9.52-17.91C106.76,144.51,109.76,141.66,119.8,146.23Z"/><path class="cls-4" d="M119.8,146.23c-3.16-.4-6.32-.84-9.49-1.18-2.84-.31-2.52,2.21-2.9,3.72A55.3,55.3,0,0,1,96,171.15a1.67,1.67,0,0,1-2.45-1.47c0-3-2-5.38-2.43-8.22-.45-7.63,5.76-11.08,10.15-15.87a5.28,5.28,0,0,1-2.46.15,1.62,1.62,0,0,1-1.17-1.55c2-3.26,7.16-3.22,8.12-7.63a3.22,3.22,0,0,1,1.15-1.71c1.32.38,2.6,1.37,4,.3,1.93-.13,1.38,1.07,1.14,2.11.34,5.13,2.59,6.85,8.76,6.69Z"/><path class="cls-10" d="M80.2,194.11l2.89,0L86,196c.1.8.18,1.6.28,2.4.61,4.68-2.12,4.64-5.39,3.82l-2-.35c-1.75-.57-2.25-2.06-2.66-3.61-.25-2.16,1.31-3,2.81-3.91A3.06,3.06,0,0,1,80.2,194.11Z"/><path class="cls-17" d="M85.89,181.08c.23,3.42,2.31,5.45,5.19,6.86-1.09.11-2.3-.13-3.08,1-2.57-1.07-2.53-4-4.17-5.77C84.05,182,84.17,180.71,85.89,181.08Z"/><path class="cls-10" d="M59.87,38.29c1.57,2.24-.28,4.46-.07,6.69-.83,2.58-.29,5.23-.37,7.84-.16,5.09-3.73,7-8.52,4.41-.51-.84-1.33-1.72-.88-2.73,2.29-5.22,2.37-11,3.88-16.35C55.92,37.47,57.92,36.94,59.87,38.29Z"/><path class="cls-10" d="M55,29.24c2.48-2.66,1.55-6,1.78-9.1,1.08-1,2.14-1.56,3.15.09-.21,4.4-.58,8.81.92,13.09,0,1.4-.29,2.58-1.79,3.09a2.6,2.6,0,0,1-3.18,0C51.2,34.54,55.13,31.64,55,29.24Z"/><path class="cls-18" d="M50.91,57.23c6.87,1,8,.12,8-6.47A12.85,12.85,0,0,1,59.8,45c.28,4.74,0,9.53,1.12,14.2-3.53-1.72-6.68-1.3-9,2-.87,1.24-1.33,0-2,.11Z"/><path class="cls-19" d="M55.84,36.38l3.18,0,.85,1.88-6-.14C54,37,55.34,37.13,55.84,36.38Z"/><path class="cls-10" d="M50.05,181.81l-.18,2.42c-3.34,2.9-.64,4.61,1.28,6.48,1.76,4.16,3.38,8.32-.2,12.39-4.81,2.71-6.14-2.47-9.08-4-2-1.17-2.11-3.15-2.22-5.17s.32-4-.77-5.81a5.22,5.22,0,0,0-1.11-.93c-2.05-2.31-4.6-4.43-2.79-8.08a2.31,2.31,0,0,1,2.83-1.34c1.46.4,2.93.63,4.12-.68h.66c1.76-.08,2.59-2.36,4.57-1.93a5.87,5.87,0,0,1,3.13,1.18C53.63,178.31,51.35,180,50.05,181.81Z"/><path class="cls-20" d="M51,203.1c1.32-4.17,1.47-8.24-1-12.11-.59-1.08.28-1.48.91-2,.13-.42.13-1.1.39-1.23.82-.41.49.45.63.76.37.83.68,1.7,1,2.56a2.56,2.56,0,0,1,1.53,2.47c-.85,3.81.79,7.63,0,11.46-.83,1.26-1.87,1.94-3.41,1.2A3.54,3.54,0,0,0,51,203.1Z"/><path class="cls-21" d="M37.77,187.19l1.45.11c1.59,3.63,2.47,7.25-.28,10.78C36.83,194.64,39.26,190.7,37.77,187.19Z"/><path class="cls-22" d="M32.22,173.16c1.13,1.24,2.76,2.14,2.78,4.13.24.19.31.37.22.54s-.18.26-.27.26c-2.56.32-3.86-1.15-4.48-3.35C30.07,173.31,31.35,173.38,32.22,173.16Z"/><path class="cls-23" d="M38.94,198.08c2.31-3.54-.06-7.19.28-10.78,3,.49,2.15,2.91,2.07,4.62-.11,2.45-.31,4.84.58,7.18C40.9,198.74,39.49,199.65,38.94,198.08Z"/><path class="cls-24" d="M35,178.09c0-.27,0-.54,0-.8l6.93-.2c.59,2.32-1.36,1.85-2.32,1.78-1.58-.12-3.12-.5-4.63.24Z"/><path d="M51.05,206.21l3.19-1.2c1.5-.15,2.77,0,2.79,2a4.53,4.53,0,0,1-6,0Q51,206.59,51.05,206.21Z"/><path class="cls-10" d="M76.89,198l1.94,3.88c.52,6.21-2,8.14-8,6.22-1,.13-.41-1.71-2.41-1.24-3.16.75-4.62-2.34-4.5-8.12.93-2.69,3.7-3.2,5.6-4.74l1.4-1.41c1.24-1.59,1.84,0,2.65.51A35.77,35.77,0,0,1,76.89,198Z"/><path class="cls-10" d="M57,207l-2.79-2c-1.46-4-2.3-8.06-.39-12.18,2.46-1.26,4.79-.48,7.13.4l.75.77c.1.14.16.32.29.4,1.21.74-2.11,3.69,1.57,3.21.63,2.78,1.61,5.55.24,8.38C61.85,208.32,59.36,207.06,57,207Z"/><path class="cls-25" d="M63.83,206c.12-3,.17-6-1.27-8.7,2.23-1.32,1.47,1.26,2.3,1.76.27,1.8.46,3.62.86,5.4a2.46,2.46,0,0,0,2.44,2.13c1.52-.2.23-2.07,1.33-3l1.29,4.59C68.06,208.73,66,207.34,63.83,206Z"/><path class="cls-26" d="M51.85,117.86c1.95-4,5.5-3.87,9.16-3.63,9.4.64,9.4.62,9.08-8.1h.7c1.72,3,.49,6.69,2,9.75a2.13,2.13,0,0,1,.62,1.41c-.41,3.3.29,6.83-1.92,9.78-2.83,1.57-5.59,4.15-8.78.61a3.47,3.47,0,0,1-.38-1.37c-.51-2.75,3.11-5.48,0-8.23-3.68-.65-7,2-10.7,1A1,1,0,0,1,51.85,117.86Z"/><path class="cls-25" d="M84.45,110.19l-5.57-3.64c0-.48,0-1,0-1.44C81,106.53,84,107,84.45,110.19Z"/><path class="cls-16" d="M100.93,127.28l1,.86c-2.19,1.91-2.16,3.36.85,4.21.13.94-.5,1.31-1.21,1.62-2,.34-3.89,1.05-5.87.19a1,1,0,0,1,.15-1.33C98.23,131.62,99,128.9,100.93,127.28Z"/><path class="cls-27" d="M112,137.26l-1.14-2.11c1.71-2.43.13-6.05,2.91-8.1L115,129.3C113,131.55,113.41,134.75,112,137.26Z"/><path class="cls-28" d="M101.83,133.15l.93-.8c1.65.37,3.27.8,4.11,2.5l-.05,2.3C104.46,136.69,102.39,135.86,101.83,133.15Z"/><path class="cls-29" d="M99,120.16l.87.91c-.81,1.42-3.48,2.26-1.24,4.65.42.44-.73,1.25-1.5,1.55-3.41,1.27-7,2.13-9.09,5.66-.36.63-1.16.14-1.67-.29-1.72-2.22,0-4,.76-5.91,1.42-1.86,3.21-3.42,4.41-5.47a3.12,3.12,0,0,1,3.47-.21C96.38,121,97.87,121.43,99,120.16Z"/><path class="cls-30" d="M72.9,117.08l-.06-1.2c5.27-4.18,8.84.61,13,2.44.2.8-.29,1.17-.92,1.44a18,18,0,0,1-5.07-.34,6.94,6.94,0,0,1-1.06-.7C77.15,117,74.61,118.51,72.9,117.08Z"/><path class="cls-19" d="M84.65,119.28l1.17-1L95,121.05c-1,.41-2.34-.21-3.07,1C88.9,122.68,86.31,122.21,84.65,119.28Z"/><path class="cls-31" d="M95.83,132.83l.3,1.53c3.3.76,1.73,2.48.64,3.86-1.82,2.32-4.15,4.18-5.93,6.55a14.1,14.1,0,0,0-3.1,6.59c-2.53,5.65-7.06,9.42-12,12.8-4.58,1.22-3.75-2.29-4.14-4.73a32.69,32.69,0,0,1,2.63-11.51,38.44,38.44,0,0,0,3-11.42c1.57-2.13,3.18-4.24,4.54-6.53a1.63,1.63,0,0,1,1.35.06c1.42,1.69.51,6,4.87,4.35,2.62.67,4.78-1,7.18-1.45Z"/><path d="M94.86,133.12c-1.62,4.48-4.8,3.84-8.2,2.5-1.61-.14-3.6,0-3.75-2.18-.1-1.62,1.08-2.13,2.57-1.25,3-3.73,6.32-6.69,11.63-5.49C95.38,128.49,93.64,130.29,94.86,133.12Z"/><path class="cls-32" d="M51.85,117.86l.21,1.51c2.77,4.45,3.08,8.61.63,13.69-1.59,3.29-1.43,7.67-1.34,11.64A34.34,34.34,0,0,1,48,160.16c-.54.71-1.11,1.36-2.14,1s-1.88-1-2.85-.06c-2.63.32-.71-2.44-2-3-1.86-1.9-3.71-3.81-5.58-5.71C33,150,32,147.51,32.13,143.72c.13-5.34-.05-10.41,2.58-15.3,1.67-3.09-2.45-5.26-1.9-8.33C39.94,126.05,45.55,119.05,51.85,117.86Z"/><path class="cls-33" d="M40.92,158.11c1.48.46.8,2.38,2,3-.89,2.49-.32,7-5.3,3.92C42.24,164.37,41.15,161,40.92,158.11Z"/><path class="cls-34" d="M44.18,172.23c1.58-2.14-2.85-5.73,1.73-7.14.74-1,1.53-2,3-1.1,1.47,3.75-1.48,5.7-3.32,8.1A1.66,1.66,0,0,1,44.18,172.23Z"/><path class="cls-35" d="M44.18,172.23a.55.55,0,0,0,.67-.09c1.86.7,2.72,1.92,2.06,3.93-1.64-.52-2.59,1.91-4.32,1A8.17,8.17,0,0,0,44.18,172.23Z"/><path class="cls-13" d="M48.87,164l-3,1.05-.1-3.92L47,160c2.36.08,2.49,1.69,2.35,3.47Z"/><path class="cls-10" d="M78.2,136.06c1,4.76-1.69,8.67-3,12.91-1,3.28-2.25,6.52-2.39,10a6.79,6.79,0,0,0-.24,4.79c.82,3,.54,5.57-2.1,7.43s-4.9.78-7-1.11c-.21-.19-.63-.08-1,0l-2-1c-4-1.11-3-4.11-2.55-6.88a7.9,7.9,0,0,1,1.4-2.64c3.25-3.88,5.85-8,5.83-13.38a10.3,10.3,0,0,1,2.45-6.42,32.94,32.94,0,0,1,9.26-4.29A2.49,2.49,0,0,1,78.2,136.06Z"/><path class="cls-10" d="M76,163.13c4.06-3.72,8.17-7.39,11.26-12,1.7-1.37,3.66-2.37,5.32-3.8a22.7,22.7,0,0,1,6.36-2.18l5-1.71c-3.82,6.63-11.2,10-12,17.73-.71,3.83-3.31,6.93-4.18,10.71-.72,2-1.3,4-2.71,5.65a3.45,3.45,0,0,1-5.15.5l-.82-.9c-2-1.08-2.16-4.08-4.69-4.68C71.23,168.7,74.73,166.11,76,163.13Z"/><path class="cls-9" d="M79.88,178c5.88,1.27,4.92-4.38,7-6.93,3-1.34,5.8-1.7,8.25,1-2.31,3.78-6.59,5.52-9.25,9l-2.06,2Z"/><path class="cls-25" d="M76,163.13c1.23,1.3.38,2.1-.48,3.22-1.28,1.68-2.33,3.63-.61,5.75-1.82,1-4.24-.06-5.86,1.65-1.21,1.32-1,3.54-2.89,4.45-1,.81-1.31,2.28-3.41,2.63,2.78-3.86,3.84-7.5-.23-10.74,1.42-1.49,1.39-1.46,2.8.19,1,1.19,2.48.81,3.71.6,1.91-.32,2.59-1.83,2.83-3.61.37-2.76-.54-5.66,1-8.28C74.23,160.09,70.49,165.15,76,163.13Z"/><path class="cls-36" d="M59.82,160.65c-.67,2.88-2.76,5.87.65,8.44-2.7.58-3.46,3-4.6,5l-.63-.28c-1.41-1.52-.93-4-3.1-5.3-1.26-.74-1-2.28.35-3.26C55.25,164.21,56.33,160.5,59.82,160.65Z"/><path class="cls-37" d="M67.93,173c2.08-2.07,4.64-.65,7-.94,4.21-.67,3.21,3,4.17,5-1.7.34-2.76.27-3.75-1.79-1.21-2.5-3.5-2.85-5.36-.13C68.2,175.49,68.11,174.22,67.93,173Z"/><path class="cls-38" d="M50.05,181.81c.68-1.6,1.79-3.21-.13-4.73,2-1,2.94-4.19,6-2.91l-.09-.1C55.81,178.07,54,180.72,50.05,181.81Z"/><path class="cls-16" d="M64.86,199.05c-.92-.39-1-1.81-2.3-1.76l-1.33,2.17a6.34,6.34,0,0,1,.5-5.46c2.57,2.95,5.16.56,7.74,0C68.82,196.52,65.51,196.56,64.86,199.05Z"/><path class="cls-20" d="M73,194.05c-.7-.46-1-1.56-2.08-1.43.74-2.2,1.48-4.4,2.32-6.93,1.09,1.9,2,3.39,1.9,5.24a1.85,1.85,0,0,1,.25,1.3C74.83,193.21,74.54,194.48,73,194.05Z"/><path class="cls-39" d="M74.07,192.15l1-1.22h7.14c.45,1.82-3.56.74-2,3.18l-.32,0L79.6,194C77.2,195,75.34,194.46,74.07,192.15Z"/><path class="cls-40" d="M67.93,173c1,.41.64,2.1,2,2.16-.58,1.19-1.11,2.4-1.74,3.55-1.38,2.5-1.35-.49-2.07-.55C67.37,176.7,66,174.29,67.93,173Z"/><path class="cls-14" d="M61,193.23c-2.32-1.08-4.75-.31-7.13-.4l-.92-1.75C55.86,190.89,58.63,191.27,61,193.23Z"/><path class="cls-41" d="M50.89,189,50,191c-2.23-2.22-3.91-4.44-.11-6.76C49.28,186,48.28,187.89,50.89,189Z"/><path d="M95.14,172.13l-8.25-1c.57-3.88,3-6.83,5-9.93,3,2.68,1.51,7.14,4,10C96,171.71,95.79,172.12,95.14,172.13Z"/><path class="cls-10" d="M92.6,148.16a4.42,4.42,0,0,1-5.36,3c-1.11-3.23,1-5.19,2.86-7.23a74.18,74.18,0,0,1,6-6.4c1.56-1.33.43-2.1,0-3.13,1.55-2.05,3.74-1.08,5.7-1.21,1.74,1.24,3.79,2.09,5,4-1.37,4.35-5.54,5.23-8.88,7.13C94.73,143.61,94.73,147.35,92.6,148.16Z"/><path class="cls-42" d="M92.6,148.16c1.15-2.16,1.36-5.61,5.34-3.88l1,.86C96.89,146.3,95.21,148.21,92.6,148.16Z"/><path class="cls-43" d="M74.07,192.15c1.4,1.92,3.67,1.27,5.53,1.85.93,2.57-3.47,1.57-2.71,4-1.79-.85-2.72-2.56-3.94-4Z"/><path class="cls-10" d="M56,174.17c-2.29.4-3,4.12-6,2.91l-3-1-2.06-3.93c1.14-2.8,4-4.72,4-8.1l.28.12c2-1.13,2.65-.22,2.69,1.7.08.47,0,1.08.26,1.4A17.41,17.41,0,0,1,56,174.17Z"/><path class="cls-10" d="M51.84,165.86a2.42,2.42,0,0,0-2.69-1.7c0-1.75-1.22-2.88-2.17-4.13,2.76-6.7,3.05-13.79,3.37-20.89a23.23,23.23,0,0,1,2.09-8.07c1.55-3.63.08-7.78-.38-11.7,3.41-1.94,7-3.08,11-2.3,1.14,1.34.59,2.68.12,4.1-.23.71-1.68,1.44-.87,1.88,1.71.9,1,1.94.75,3.09l-.14,1c1.54,4.77-1.52,9.36-.52,14.1-.26,6.51-.47,13-2.45,19.3l-.1.12c-1.06,1-2.6,1.84-3.08,3.08C55.72,166.35,54.08,166.56,51.84,165.86Z"/><path d="M61,141.12c-.33-4.8.76-9.4,1.94-14,2.66,3,5.29-.4,7.94,0,1.33,1,1.64,2.66,2.4,4-.27,3.44-3.58,4.58-5.27,6.95-2.11.4-2.45-1.64-3.46-2.7C62.66,137,64.23,140.54,61,141.12Z"/><path class="cls-10" d="M72.88,131.17c-3.26,0-1.91-2.44-2-4.08,1.81-3.1,0-7,2.07-10,2.36-.73,4.7-1.35,6.84.57-.09,4.09-2.77,7.17-4.2,10.74C75.06,129.7,74.41,130.86,72.88,131.17Z"/><path class="cls-44" d="M63,126.14c-3.42-3,.17-6,0-9.07,1.43-.68,2.75-.83,2.23,1.35C64.63,121,64.7,123.84,63,126.14Z"/><path class="cls-10" d="M72.88,131.17l2-2.76a59.82,59.82,0,0,0,5.14-8.92c1.45-1.82,3-.7,4.6-.21,2.14,1.67,4.84,1.88,7.27,2.79.55,3.2-2.76,3.3-4,5s-2.67,3.07-5,3l-.49,0-.42.26c-1.57,1.89-2.75,4.17-5.22,5.16-2.68,1.25-5.2,2.95-8.31,3l-.55-.43C67.26,134.15,72,134,72.88,131.17Z"/><path d="M82.9,130.13l5-3c.65,1.87-2.5,3-1,5-1.8,1.07-1.8,1.07,1,3C82.91,137,82.76,136.85,82.9,130.13Z"/><path class="cls-45" d="M80.05,119.49c.38,4.19-2,6.75-5.14,8.92.36-4.15,3.53-7,4.83-10.76C79.84,118.26,80,118.88,80.05,119.49Z"/><path class="cls-19" d="M76.77,134.67C78.35,133,79.62,131,82,130.36c-.08,2.68-.8,4.94-3.79,5.7l-1.3,0A.81.81,0,0,1,76.77,134.67Z"/><path class="cls-46" d="M61,141.12c1.62-2.24.46-5.73,3.67-7.26l3.29,4.26v0a1.55,1.55,0,0,1,.1,2.12c-2.26,4.9-.62,10.84-4.15,15.43-1.27,1.65-1.77,3.9-3.93,4.84Q60.45,150.82,61,141.12Z"/><path class="cls-47" d="M68,140.26l-.1-2.12c3.28-.32,5.8-2.61,8.87-3.47L76.9,136C74.31,138.25,71,138.9,68,140.26Z"/></g></g></svg>