<svg xmlns="http://www.w3.org/2000/svg" viewBox="0 0 228.79 325.97"><defs><style>.cls-1{fill:#fcfcfc;}.cls-2{fill:#282828;}.cls-3{fill:#060606;}.cls-4{fill:#020202;}.cls-5{fill:#070707;}.cls-6{fill:#050505;}.cls-7{fill:#080808;}.cls-8{fill:#040404;}.cls-9{fill:#4a4a4a;}.cls-10{fill:#525252;}.cls-11{fill:#494949;}.cls-12{fill:#454545;}.cls-13{fill:#323232;}.cls-14{fill:#474747;}.cls-15{fill:#585858;}.cls-16{fill:#efdea6;}.cls-17{fill:#0f0f0f;}.cls-18{fill:#8c8c8c;}.cls-19{fill:#111;}.cls-20{fill:#505050;}.cls-21{fill:#242424;}.cls-22{fill:#b0b0b0;}.cls-23{fill:#3f3f3f;}.cls-24{fill:#626262;}.cls-25{fill:#1a1a1a;}.cls-26{fill:#dcdcdc;}.cls-27{fill:#f0f0f0;}.cls-28{fill:#4d4d4d;}.cls-29{fill:#424242;}.cls-30{fill:#515151;}.cls-31{fill:#adadad;}.cls-32{fill:#030303;}.cls-33{fill:#464646;}.cls-34{fill:#9d9d9d;}.cls-35{fill:#303030;}.cls-36{fill:#949494;}.cls-37{fill:#1f1f1f;}.cls-38{fill:#292929;}.cls-39{fill:#3d3d3d;}.cls-40{fill:#3a3a3a;}.cls-41{fill:#3e3e3e;}.cls-42{fill:#1b1b1b;}.cls-43{fill:#5a5a5a;}.cls-44{fill:#393939;}.cls-45{fill:#565656;}.cls-46{fill:#262626;}.cls-47{fill:#4f4f4f;}.cls-48{fill:#171717;}.cls-49{fill:#dedede;}.cls-50{fill:#2e2e2e;}.cls-51{fill:#151515;}.cls-52{fill:#181818;}.cls-53{fill:#535353;}.cls-54{fill:#444;}.cls-55{fill:#868686;}.cls-56{fill:#676767;}.cls-57{fill:#636363;}.cls-58{fill:#ececec;}.cls-59{fill:#f8f8f8;}.cls-60{fill:#eee;}.cls-61{fill:#f4f4f4;}.cls-62{fill:#d5d4d5;}.cls-63{fill:#f5f5f5;}.cls-64{fill:#545454;}.cls-65{fill:#c8c8c8;}.cls-66{fill:#3b3b3b;}.cls-67{fill:#f3f3f3;}.cls-68{fill:#e3e3e3;}.cls-69{fill:#363636;}.cls-70{fill:#5f5f5f;}.cls-71{fill:#6e6e6e;}.cls-72{fill:#d9d9d9;}.cls-73{fill:#f4f3f4;}.cls-74{fill:#1c1c1c;}.cls-75{fill:#ebebeb;}.cls-76{fill:#e4e4e4;}.cls-77{fill:#dbdbdb;}.cls-78{fill:#d6d6d6;}.cls-79{fill:#343434;}.cls-80{fill:#f7f7f7;}</style></defs><g id="Capa_2" data-name="Capa 2"><g id="Capa_2-2" data-name="Capa 2"><path class="cls-1" d="M118.38,143.38h-.58C118.32,143.64,118.37,143.54,118.38,143.38Z"/><path class="cls-1" d="M132.05,259.14h-.24l-.05.1A.48.48,0,0,0,132.05,259.14Z"/><path class="cls-1" d="M196.14,79.86h0c.41.59.32-.06.31-.08a1,1,0,0,1-.14-.16h0v.22Z"/><path class="cls-1" d="M49.39,225l0,0v0Z"/><path class="cls-1" d="M124.77,142.85h0a3.16,3.16,0,0,1-.32,0l.26-.11h0Z"/><path class="cls-1" d="M71.54,232.08h0v0Z"/><path class="cls-1" d="M219.17,83.07l-.06-.29A34,34,0,0,0,216,72.44L215.8,72A82.77,82.77,0,0,0,197,39.47l-.31-.33-.44-.38c-.26-.25-.57-.61-1.2-1.36a23.73,23.73,0,0,0-5.25-4.95l-.3-.23c-11.46-9.72-25.63-16.8-43.31-21.64A125,125,0,0,0,113.27,6c-25.4,0-49.95,8.55-73,25.4a45.58,45.58,0,0,0-11,10.73l-.1.13-.81,1c-.86,1-1.84,2.2-2.76,3.52-14.8,21-21,45.6-19.35,77.28.67,13.25,5.18,24.88,9.52,36.13.84,2.13,1.67,4.27,2.46,6.41l.33.86-.23.9a13.33,13.33,0,0,0,.13,7.62l.87,2.55-2.43,1.14a10.4,10.4,0,0,0-4.76,4.48c-2.09,3.84-1.65,8,1.32,12.76l.17.3A74.53,74.53,0,0,0,32.54,222l.46.4.79.71.82,5.2,0,.93A118.47,118.47,0,0,1,33.45,247c-1.08,6.45.78,12,5.37,16l.35.36,5,6.11c7.18,9.21,14.85,18.91,23.35,28.18l.24.26.17.31a35.61,35.61,0,0,0,5.5,7.06c.44.48.84.89,1.18,1.29l.23.24L75,307c4.84,8.49,12.25,13,21.49,13a35,35,0,0,0,8.7-1.17c6-1.53,11.73-1.62,16.49-.24A33.44,33.44,0,0,0,131,320c6.61,0,16-2.47,22.92-14.27l.26-.39.93-1.12,34.74-41.11.15-.14c4.35-3.87,6.18-9.09,5.46-15.53-.49-4.38-.72-8.77-1-13.42-.09-1.75-.19-3.49-.29-5.23l0-.17.09-1.53.15-.44a14.35,14.35,0,0,0,.74-2.74l.18-1.09.83-.71c8.09-6.84,14.51-15.45,19.67-26.32,1.45-3.07,3.06-7.69.15-12.26a10.22,10.22,0,0,0-5-4.07l-2.53-1,.73-2.61a14.07,14.07,0,0,0,.46-4.6c-.21-3.67,1.41-7.46,3.29-11.86a69.75,69.75,0,0,0,3.68-10.13c.44-1.69,1-3.48,1.67-5.36a63.61,63.61,0,0,0,3-11.43c.13-.77.22-1.51.31-2.32C223.76,113.22,223,97.86,219.17,83.07Zm-6.44,45.36q-.09,1-.27,1.95c-.75,5.55-3.15,10.67-4.5,16-2.13,8.35-7.77,15.66-7.25,24.74,0,.78-.11,2.14-.52,2.28-5.39,1.92-1.68,5.62-1.77,8.55,1.21,3.22,3.76,4.62,7,5.12,4.38-.59,3.34,2.06,2.32,4.21-4.32,9.1-10,17.21-17.81,23.68a13,13,0,0,0-3.51,4c0,1.73.12,3.48-1,5l-.21,4c.4,6.59.59,13.21,1.32,19.77.39,3.48-.27,6.13-3,8.25q-3.45,4.1-6.89,8.18l-28.39,33.57-1.79,2.16a3.68,3.68,0,0,1-.21.45c-5,8.61-11.91,11.82-22,8.9-6.86-2-14.28-1.59-21.22.16-9.25,2.35-16.16.27-20.63-8.45C80,298,76.9,295.59,75.3,292c-8.53-9.19-16.32-19-24-28.88L45.39,256c-2.79-2.07-3.62-4.68-3-8.19,1.14-6.84,1.16-13.8,1.28-20.74-.31-2.07-.64-4.13-1-6.2-.51-2.74-2.13-4.51-4.29-6.34A66,66,0,0,1,21.46,192c-1.88-2.91-3-5.46,2.31-5.23,3.52.16,5.24-2.15,6.65-4.87.33-1.64.69-3.26,1-4.9.17-.94.63-2.38-.66-2.52-5.22-.58-4-3.86-2.91-6.86.7-1.94-.5-3.18-1.05-4.64-4.85-13.06-10.78-25.79-11.5-40C14,97.26,17.81,72.86,33,51.27c1-1.48,2.27-2.84,3.4-4.26a36.3,36.3,0,0,1,9.11-8.89c29.74-21.84,62.38-29.35,98.36-19.51C158.71,22.67,172.63,28.79,184.4,39c2.6,1.41,3.93,4.09,6.08,5.95A73.46,73.46,0,0,1,207.55,75a24.87,24.87,0,0,1,2.78,9C214.17,98.7,214.62,113.51,212.73,128.43Z"/><path class="cls-1" d="M179.19,254.86l-.09-.1h0l-.11.12Z"/><path class="cls-1" d="M196.33,74.87s0,.09,0,.14l-.06-.13Z"/><path class="cls-1" d="M46.55,44.07v.07l0,0h0Z"/><path class="cls-1" d="M109.64,129.94c0,.05,0,.09,0,.09h0s0-.07,0-.1Z"/><path class="cls-2" d="M225,81.73A39.83,39.83,0,0,0,221.46,70,88.65,88.65,0,0,0,201.4,35.38l-.4-.44-.62-.56c-.18-.19-.49-.56-.73-.85a29.31,29.31,0,0,0-6.39-6c-12.12-10.24-27-17.68-45.46-22.74A131,131,0,0,0,113.27,0C86.56,0,60.82,8.94,36.83,26.51a51.35,51.35,0,0,0-12.37,12l-.71.87c-.93,1.11-2,2.38-3.05,3.89C5.08,65.49-1.42,91.24.26,124.34c.72,14.21,5.39,26.29,9.93,38,.7,1.83,1.42,3.66,2.11,5.5a20.25,20.25,0,0,0-.16,7.62,16.56,16.56,0,0,0-5.28,5.81c-2.16,4-3.66,10.44,1.43,18.66A80.45,80.45,0,0,0,28.2,226.19l.4,2.54,0,.42A114.36,114.36,0,0,1,27.52,246c-1.39,8.4,1.15,16,7.17,21.3l4.82,5.86c7.13,9.16,14.82,18.88,23.38,28.24a42.86,42.86,0,0,0,6.24,8l.85.92C75.86,320.4,85.27,326,96.51,326a41.23,41.23,0,0,0,10.18-1.35,25.94,25.94,0,0,1,13.33-.3A39.46,39.46,0,0,0,131,326c8.14,0,19.58-3,28-17L188,274.49l6.09-7.23c4-3.63,8.42-10.11,7.25-20.53-.48-4.2-.69-8.5-.93-13.06-.09-1.71-.18-3.41-.28-5.11l0-.31a21,21,0,0,0,.64-2.3c8.38-7.28,15-16.33,20.4-27.63,3.19-6.74,3.13-12.8-.19-18a16.2,16.2,0,0,0-5.53-5.33,20.35,20.35,0,0,0,.14-4.07c-.13-2.27,1.24-5.46,2.83-9.17a75.55,75.55,0,0,0,4-11c.37-1.49.93-3.17,1.56-5a68.25,68.25,0,0,0,3.24-12.35c.13-.84.25-1.7.34-2.57C229.8,113.26,229,97.21,225,81.73Zm-3.38,48.39c-.09.81-.18,1.55-.31,2.32a63.61,63.61,0,0,1-3,11.43c-.63,1.88-1.23,3.67-1.67,5.36A69.75,69.75,0,0,1,213,159.36c-1.88,4.4-3.5,8.19-3.29,11.86a14.07,14.07,0,0,1-.46,4.6l-.73,2.61,2.53,1a10.22,10.22,0,0,1,5,4.07c2.91,4.57,1.3,9.19-.15,12.26-5.16,10.87-11.58,19.48-19.67,26.32l-.83.71-.18,1.09a14.35,14.35,0,0,1-.74,2.74l-.15.44-.09,1.53,0,.17c.1,1.74.2,3.48.29,5.23.24,4.65.47,9,1,13.42.72,6.44-1.11,11.66-5.46,15.53l-.15.14-34.74,41.11-.93,1.12-.26.39c-7,11.8-16.31,14.27-22.92,14.27a33.44,33.44,0,0,1-9.26-1.4c-4.76-1.38-10.47-1.29-16.49.24a35,35,0,0,1-8.7,1.17c-9.24,0-16.65-4.48-21.49-13l-.15-.28-.23-.24c-.34-.4-.74-.81-1.18-1.29a35.61,35.61,0,0,1-5.5-7.06l-.17-.31-.24-.26c-8.5-9.27-16.17-19-23.35-28.18l-5-6.11-.35-.36c-4.59-4-6.45-9.51-5.37-16a118.47,118.47,0,0,0,1.13-17.7l0-.93-.82-5.2-.79-.71-.46-.4a74.53,74.53,0,0,1-18.91-24.83l-.17-.3c-3-4.75-3.41-8.92-1.32-12.76a10.4,10.4,0,0,1,4.76-4.48l2.43-1.14L18.46,176a13.33,13.33,0,0,1-.13-7.62l.23-.9-.33-.86c-.79-2.14-1.62-4.28-2.46-6.41C11.43,148.91,6.92,137.28,6.25,124,4.65,92.35,10.8,67.79,25.6,46.75c.92-1.32,1.9-2.48,2.76-3.52l.81-1,.1-.13a45.58,45.58,0,0,1,11-10.73c23-16.85,47.56-25.4,73-25.4a125,125,0,0,1,32.94,4.58c17.68,4.84,31.85,11.92,43.31,21.64l.3.23a23.73,23.73,0,0,1,5.25,4.95c.63.75.94,1.11,1.2,1.36l.44.38.31.33A82.77,82.77,0,0,1,215.8,72l.19.47a34,34,0,0,1,3.12,10.34l.06.29C223,97.86,223.76,113.22,221.64,130.12Z"/><path class="cls-3" d="M212.73,128.43q-.09,1-.27,1.95c-.75,5.55-3.15,10.67-4.5,16-2.13,8.35-7.77,15.66-7.25,24.74,0,.78-.11,2.14-.52,2.28-5.39,1.92-1.68,5.62-1.77,8.55l-3.13,4.1c-.3-.51-.58-1.23-.87-1.82s-.59-1.06-.9-1.07c-1.5,0-1.25,2-2,2.92a7.66,7.66,0,0,1-1,3.2,8.29,8.29,0,0,1-2.26,2.48,17.76,17.76,0,0,1-3.88,4.76,25.71,25.71,0,0,1-5.11,3.41c-12.54,6.51-26.64,4-38-6.79a36.94,36.94,0,0,1-8.9-10.11h0c-6.45-7.83-7.56-17.64-10-27l1.25-1.26a5,5,0,0,1,.77.17,10.19,10.19,0,0,0,1.91-2.55,6,6,0,0,1,2.17-2.31l0,0a12.29,12.29,0,0,1,5.94-4h0c.79-.94,2.51-.59,3-2.25-4.23-1.1-8.53-.49-12.72-1l0-.14c4.22-1.7,8.7,0,13-.83,6.6.18,13.17-.21,19.78-.55,9.55-.49,19.23-.77,27.82,4.74a17.19,17.19,0,0,1,8.16,10.84h0c1.46,2.89,1.07,6.26,2.33,10.12a135.33,135.33,0,0,0,12.72-44c.14-1.69.24-3.39.28-5.08a140.13,140.13,0,0,0-1.48-24.12c-1.6-11.3-4.61-22.17-10.66-32.05-.21,4.41.27,8.78-.36,13.11h-.08c-.6-1.29-1.19-2.57-1.79-3.85h0c-1.33-8.16-1.7-16.66-8-23.08l4-3A73.46,73.46,0,0,1,207.55,75a24.87,24.87,0,0,1,2.78,9C214.17,98.7,214.62,113.51,212.73,128.43Z"/><path class="cls-4" d="M202.43,192h0c-1.88,4.14-4.81,7.53-7.6,11-6.06,7.61-13.36,10.6-23.24,8.4-7-1.55-14.1-1.12-18.14,6.58h0l.9,3.06h0c.35,1.29.69,2.58,1,3.88h0c1.49,2.89,2.47,5.88,1.9,9.19h0c.52,5.93-4.8,4.09-7.56,5.29-1.33.59-3.05.58-4.29,1.73h0a1.46,1.46,0,0,1,.07.55h0l1.09.31c.92-.26,1.73-.25,2.08.87l2.59-2c1.38-1.14,2.56-1.18,3.37.64,1.12,2.51,1.77,4.93-1.22,6.69l-1,1.6c3.42,0,3,1.84,1.83,4l1.31,2.31a1.57,1.57,0,0,1,.61,0c3-.58,5.57-.23,7.14,2.77,1.84-3.22,3-6.91,6.31-9.11,1-.67.67-1.78.78-2.67a27.33,27.33,0,0,0-1.08-10.85c-1.8-6.43-1.06-12.86.08-19.29,1.43-1.13,1.43-1.13,2.87,1.93.31-.78.2-2.43,1.4-1.87,1.5.71.15,2.51.56,3.77l1.14,2.15c.94-.88-.94-3.86,2.28-3.05,1.93,1.21-.25,3.75,1.61,5l1.15-1.14-.16-1.66h0c.2-1.63.4-3.26.82-6.64,1,4.77,3.38,3.44,5.33,3.53a12.67,12.67,0,0,1,3.52-4,67.73,67.73,0,0,0,17.79-23.68c1-2.15,2.07-4.8-2.31-4.21C205.84,189.54,204.89,191.22,202.43,192ZM166,222.51a10,10,0,0,1,.4-8C167.77,218.3,166,220.3,166,222.51Z"/><path class="cls-4" d="M174.22,220.78a2.51,2.51,0,0,0-.29,1.19C174,221.57,174.11,221.17,174.22,220.78Z"/><path class="cls-3" d="M190.48,45l-4,3-.23-.19L178,40.81l-.75-.62c-2.51-1.58-5-3.28-7.57-4.73-20.58-11.47-42.31-18.2-66.16-15.2-18.4,2.3-35.22,9-50.77,19-2,1.62-4.1,3.24-6.16,4.86v-.07l0,0h0l.05,0-3.85,3.49-.31.27c-6.5,6.74-7,15.49-8,24-.94.82-.36,2.56-1.86,3-.69-4.36-.12-8.76,0-13.68C16.29,87.2,15.39,135,33.39,166.89c.66-3.84.71-7.52,2.22-10.86.08-.35.16-.68.27-1a14.25,14.25,0,0,1,5.48-7.28c.49-.77,1-1.53,2-1.65a.64.64,0,0,1,.2,0c3.44-2.43,7.37-3.42,11.47-4.14,12.33-2.15,24.65,1,37,0,3.78.88,7.77-.94,11.44,1-3.94.65-8.05-.26-12.36,1.31,2,1.12,3.7,2,5.35,3l.88.49c2.19,1.22,4.25,2.54,5,5.2a1.12,1.12,0,0,1,.08.26c.72,3.09,2.48,1.41,4,.88l1.15,1.17c-1.84,2.26-2.36,5-2.8,7.76C102,179.19,93,191.31,78.9,199.38c-13.53,7.75-29.26,4.36-38.4-7.45-.29-.34-.56-.69-.83-1a16.31,16.31,0,0,1-3-5.6c0-.13-.07-.26-.1-.39-.79-.29-.29-3.53-2.3-1-1.46-.35-3.63.66-3.89-2,.33-1.64.69-3.26,1-4.9.17-.94.63-2.38-.66-2.52-5.22-.58-4-3.86-2.91-6.86.7-1.94-.5-3.18-1.05-4.64-4.85-13.06-10.78-25.79-11.5-40C14,97.26,17.81,72.86,33,51.27c1-1.48,2.27-2.84,3.4-4.26a36.3,36.3,0,0,1,9.11-8.89c29.74-21.84,62.38-29.35,98.36-19.51C158.71,22.67,172.63,28.79,184.4,39,187,40.43,188.33,43.11,190.48,45Z"/><path class="cls-5" d="M48.37,218.09c.13,2.32,1.48,4.47,1,6.87l0,0,.21-.12c1.58-1.44.19-3.44.95-5,0-.78-.25-1.76.12-2.31.65-1,1.25-.29,1.7.48.8,1.39.73.25,1.24-.3,1.88-2,2.58-.77,2.86,1.23,1.39-.13.84-1.35,1.21-2.06.58-1.12,1.25-1.25,1.62.2,2,5.17,1.36,10.53,1.17,15.86,1-3.76,3.06-5.53,7.31-5.18,3.2.27,4,1.63,3.75,4.33h0c1.94-3.43.92-7.66,2.95-11.08h0c2.06.33,1.64,3.12,3.55,3.56-2.13-9.46-7.17-13.71-16.42-13.53a70.62,70.62,0,0,0-9.4,1c-5.74.88-10.34-1-14.35-5.09-4.48-4.49-8.73-9.11-11.49-14.9-1.63-1.66-3.28-2.63-4.92,0h0A65.86,65.86,0,0,0,38.39,214.5c2.16,1.83,3.77,3.6,4.29,6.34C44.68,220.14,45.55,217.11,48.37,218.09Zm13.84-2.89c2,3.18,1.39,5.81.75,8.3C62.2,221,61.36,218.57,62.21,215.2Z"/><path class="cls-6" d="M144.34,296.84a12.5,12.5,0,0,0-1.76,2.05c-4.75,8.57-12.42,7.33-20.19,6.24a64.58,64.58,0,0,0-19.28.37c-7.22,1.16-13.89,1-17.92-6.53-1.22.26-2.43.56-2.81,2,4.47,8.72,11.39,10.8,20.65,8.45,6.93-1.75,14.34-2.15,21.2-.16,10.06,2.92,16.94-.29,22-8.9a3.62,3.62,0,0,0,.2-.45A3.77,3.77,0,0,0,144.34,296.84Z"/><path class="cls-5" d="M148.37,291.86c2,2-1.34,3.89-.17,5.89l28.4-33.57-4.24-1.27Z"/><path class="cls-7" d="M77.67,289.62,52.18,258c-1.86,1.43,1.62,3.81-.9,5.13C59,273,66.76,282.82,75.3,292A4.05,4.05,0,0,0,77.67,289.62Z"/><path class="cls-7" d="M181.37,231.24a33.93,33.93,0,0,1-.17,5.95c.12,2.48-.16,5.06.48,7.4,1.1,4,.3,7.3-2.58,10.16h0l.09.1a9.1,9.1,0,0,1,4.29,1.14c2.74-2.12,3.41-4.77,3-8.25-.73-6.56-.91-13.18-1.32-19.77C182.26,227.14,180.91,227.9,181.37,231.24Z"/><path class="cls-8" d="M48.72,253.62c-3.06-2.62-2-5.88-1.53-9.13.33-2.1.29-4.27.42-6.41a27.48,27.48,0,0,1-.13-5.43c.54-3.26-.76-5-3.83-5.61-.13,6.94-.15,13.9-1.29,20.74-.59,3.51.24,6.12,3,8.19A3.47,3.47,0,0,0,48.72,253.62Z"/><path class="cls-9" d="M34.31,183.9a1.23,1.23,0,0,1,0,.2c-.21,3.45-2.23,5.33-5.48,6a2.93,2.93,0,0,0-2.08,1,2.1,2.1,0,0,0-.34.83c-1.63-1.66-3.28-2.63-4.91,0,0,0,0,0,0,0-1.88-2.91-3-5.46,2.31-5.23,3.52.16,5.24-2.15,6.65-4.87C30.68,184.56,32.85,183.55,34.31,183.9Z"/><path class="cls-10" d="M205.5,188.16a2.78,2.78,0,0,1,0,.51,2,2,0,0,1-.07.49,3.31,3.31,0,0,1-.12.42s0,0,0,0a2.83,2.83,0,0,1-.17.4,4.45,4.45,0,0,1-.33.51l-.21.23-.35.32a3.69,3.69,0,0,1-.4.29l-.43.24-.07,0c-.15.07-.31.14-.48.2l-.38.13a3.74,3.74,0,0,0-.63-.5c-2.29-1.58-5.94-1.54-6.48-5.22l0-.25,3.13-4.1c1.21,3.22,3.76,4.62,7,5.12A6.52,6.52,0,0,1,205.5,188.16Z"/><path class="cls-11" d="M179,254.87l-6.63,8,4.24,1.27h0l6.88-8.18a9.1,9.1,0,0,0-4.29-1.14Z"/><path class="cls-12" d="M85.19,299q-3.75-4.68-7.52-9.35A4.05,4.05,0,0,1,75.3,292c1.61,3.58,4.66,6,7.08,9C82.76,299.53,84,299.23,85.19,299Z"/><path class="cls-10" d="M47.48,232.65a27.48,27.48,0,0,0,.13,5.43c1.38-3.59.64-7.35.81-11h0L47.54,226h0c-1.34-.14-2.76-.46-2.75-2.05,0-1.44.65-2.81,2.49-2.92.33-1-.57-2.42,1.09-2.9-2.82-1-3.69,2-5.69,2.75l1,6.2C46.72,227.69,48,229.39,47.48,232.65Z"/><path class="cls-13" d="M180.24,222.07h0l.16,1.66c.49,4.48-.69,9.05.8,13.46a33.93,33.93,0,0,0,.17-5.95c-.46-3.34.89-4.1,3.81-3.26l.2-4C183.35,224.18,182.34,221.64,180.24,222.07Z"/><path class="cls-14" d="M52.18,258l-3.46-4.38A3.47,3.47,0,0,1,45.39,256l5.89,7.16C53.8,261.81,50.32,259.43,52.18,258Z"/><path class="cls-9" d="M181.06,215.43c-.42,3.38-.62,5-.82,6.64h0c2.1-.43,3.11,2.11,5.14,1.87,1.13-1.5,1-3.25,1-5C184.44,218.87,182,220.2,181.06,215.43Z"/><path class="cls-15" d="M148.37,291.86a15.56,15.56,0,0,0-4,5,3.77,3.77,0,0,1,2.07,3.07l1.79-2.16C147,295.75,150.4,293.89,148.37,291.86Z"/><path class="cls-16" d="M207.35,93.81c-1.6-11.3-4.61-22.17-10.66-32.05-.21,4.41.27,8.78-.36,13.11,0,0,0,.09,0,.14h0v4.6a1,1,0,0,0,.14.16s.1.67-.31.08L195,80c-.16-3-.32-6-.5-9h0c-1.33-8.16-1.7-16.66-8-23.08l-.23-.19L178,40.81l-.75-.62c-2.51-1.58-5-3.28-7.57-4.73-20.58-11.47-42.31-18.2-66.16-15.2-18.4,2.3-35.22,9-50.77,19-2,1.62-4.1,3.24-6.16,4.86h0l-3.85,3.49-.31.27c-6.5,6.74-7,15.49-8,24,0,.67.1,1.35.13,2a15.23,15.23,0,0,1-1.21,7.1A9.2,9.2,0,0,1,32.52,75v0c-.69-4.36-.12-8.76,0-13.68C16.29,87.2,15.39,135,33.39,166.89c.66-3.84.71-7.52,2.22-10.86.08-.35.16-.68.27-1a14.25,14.25,0,0,1,5.48-7.28c.49-.77,1-1.53,2-1.65a.64.64,0,0,1,.2,0c3.44-2.43,7.37-3.42,11.47-4.14,12.33-2.15,24.65,1,37,0a4.35,4.35,0,0,1,.46-.11,32,32,0,0,1,9-.79c1.23,0,2.46.07,3.68.09,3.48.06,4.16-.91,2.25-3.78-1.09-1.62-2.12-3.29-3.18-4.94L97,126.1c.36-.39.72-.79,1.09-1.18a16.12,16.12,0,0,1,7.56,6,10.54,10.54,0,0,1,3,3.93c1.62-1.26.84-3,1-4.78h0s0,0,0-.09h0a4.16,4.16,0,0,1,.28-1.13,6,6,0,0,1,1.6,3.9,6.21,6.21,0,0,1-.17,1.39,38,38,0,0,1,.13,4c-.19,2.15.58,2.86,2.79,2.88,2.36,0,3.31-.67,3.12-3.1a53.91,53.91,0,0,1,.3-6.19c.64,2.21.88,3.06,1.23,4.26,3-3,4.68-7.22,10.16-9.36-3.07,4.33-5.4,7.58-7.7,10.86-1.8,2.56-1.38,3.62,2,3.62,1.07,0,2.13,0,3.19,0h0c3.74-.09,7.48-.15,11.15.89,6.6.18,13.17-.21,19.78-.55,9.55-.49,19.23-.77,27.82,4.74a17.19,17.19,0,0,1,8.16,10.84h0c1.46,2.89,1.07,6.26,2.33,10.12a135.33,135.33,0,0,0,12.72-44c.14-1.69.24-3.39.28-5.08A140.13,140.13,0,0,0,207.35,93.81ZM114,107.48A85,85,0,0,1,112.52,84a208.58,208.58,0,0,1,1.65-30.56c2.32,10.07,2,20.33,2.1,30.56C116.7,91.58,117.07,99.11,114,107.48Z"/><path class="cls-16" d="M119.46,220a11.46,11.46,0,0,1,1.63-.53A1.81,1.81,0,0,0,119.46,220Z"/><path class="cls-16" d="M119.46,188a1.61,1.61,0,0,0-1.3.47A8.56,8.56,0,0,0,119.46,188Z"/><path class="cls-16" d="M201.8,191.49c-2.29-1.58-5.94-1.54-6.48-5.22l0-.25c-.3-.51-.58-1.23-.87-1.82s-.59-1.06-.9-1.07c-1.5,0-1.25,2-2,2.92a7.66,7.66,0,0,1-1,3.2,8.29,8.29,0,0,1-2.26,2.48,17.76,17.76,0,0,1-3.88,4.76,25.71,25.71,0,0,1-5.11,3.41c-12.54,6.51-26.64,4-38-6.79a36.94,36.94,0,0,1-8.9-10.11h0c-6.45-7.83-7.56-17.64-10-27l-.56-.37c-4.46-2.77-9.11-2.68-13.87-.75l-.44.18c-1.84,2.26-2.36,5-2.8,7.76C102,179.19,93,191.31,78.9,199.38c-13.53,7.75-29.26,4.36-38.4-7.45-.29-.34-.56-.69-.83-1a16.31,16.31,0,0,1-3-5.6c0-.13-.07-.26-.1-.39-.79-.29-.29-3.53-2.3-1a1.23,1.23,0,0,1,0,.2c-.21,3.45-2.23,5.33-5.48,6a2.93,2.93,0,0,0-2.08,1,2.1,2.1,0,0,0-.34.83c2.76,5.79,7,10.41,11.49,14.9,4,4,8.61,6,14.35,5.09a70.62,70.62,0,0,1,9.4-1c9.25-.18,14.29,4.07,16.42,13.53-1.91-.44-1.49-3.23-3.55-3.56h0c-.49,3,2.38,6,0,9q.25,3.57.54,7.12c1.42,2.51,4,2.37,6.36,2.91,6.37,1.24,12.7,3.23,19.12,3.5,6.27.26,12.5,2.13,18.9.74,3.54-.77,7.35-.21,10.87-.82,4-.69,8-1.94,12.13-2.26l1,0,2,0c1.23-1.15,3-1.14,4.29-1.73,2.77-1.2,8.08.64,7.56-5.29-1.13,1.09-1.91,2.68-3.75,2.83.63-4.12,1.24-8.08,1.85-12-.35-1.3-.69-2.59-1-3.88l-4.9,6a20.6,20.6,0,0,1,1.5-5.13,16.24,16.24,0,0,1,2.51-3.93c.18-.34.37-.67.56-1s.39-.62.6-.9.41-.57.63-.83a7.75,7.75,0,0,1,.66-.74,5.81,5.81,0,0,1,.43-.43,12.92,12.92,0,0,1,1.89-1.48l.42-.24c.16-.09.32-.18.49-.26s.33-.16.5-.24a6.69,6.69,0,0,1,.67-.27l.25-.1.09,0h0c.21-.08.41-.15.63-.21l.43-.11a3,3,0,0,1,.43-.1,3.29,3.29,0,0,1,.43-.09,13.13,13.13,0,0,1,1.55-.21c.13,0,.26,0,.39,0l.39,0,.8,0a27.25,27.25,0,0,1,5.89.72c9.88,2.2,17.18-.79,23.24-8.4,2.8-3.51,5.73-6.9,7.61-11A3.74,3.74,0,0,0,201.8,191.49ZM59.45,207.88c-4.64,0-9.3,2.7-13.93,0a6.25,6.25,0,0,1-3.84-4.22l6,3.19,6.35,0c4.56-1.11,9.09-1.42,13.54,1.08Zm62-27c-2.48-1.54-2.14-5.15-5.43-5.42C120.75,174.3,120.92,177.43,121.43,180.89ZM112,175c-1.6,2.22-3,4.17-4.4,6.12C108.29,178.61,107.65,174.84,112,175ZM93.36,213.72c.18,3.68,0,7.16,2.4,10C90.9,221.11,90.36,218.69,93.36,213.72Zm21.13,24c-2.39-3.82-4.57-6.48-8.1-8.3.65-.24,1.11-.57,1.32-.46,4.43,2.4,8.85,4,13.5-.2C119,231.89,116.32,234,114.49,237.74Zm17.88-18.81c0,2.69-1.57,4.16-4,4.7-1,.23-2.46.52-1.29-1.55.55-1-.67-1.18-1.46-1.28l-6.14-.77-3.26,2.09c-.47-2.24-.88-4.19-1.3-6.15l-.82-.06c-.41,1.78-.83,3.55-1.27,5.44-1.83.57-2.71-1.64-4.35-1.53-2.09,1.5-4.58.84-6.88,1.27v0c-.12,1,1.67,3.45-1.49,2.4-1.65-.55-3.41-1.41-3.53-3.64-.79-2.79.4-5.12,1.63-7.49,4.59-8.91,8.37-18.2,12.2-27.45a2.25,2.25,0,0,1,.8-2.26c2.34-1.78,4.59-1.7,6.47.23,1,1.53,2.06,3.06,1.81,5q5.94,12.86,11.86,25.73C132.07,215.32,133,217,132.37,218.93Zm.21,5.41c2.78-3.76,3.25-7,1.81-11.29C138.64,217.52,138.11,221.06,132.58,224.34Zm36.81-16.45h-8.15c0-.42,0-.83,0-1.24a26,26,0,0,1,13.72.21,50.14,50.14,0,0,0,9.24-.41C179.71,211.06,174.39,208,169.39,207.89Z"/><path class="cls-16" d="M137.49,143.81c-.53,1.66-2.25,1.31-3,2.25h0a12.29,12.29,0,0,0-5.94,4l0,0a6,6,0,0,0-2.17,2.31,10.19,10.19,0,0,1-1.91,2.55,5,5,0,0,0-.77-.17c-.14-.11-.27-.22-.42-.32h0c-5.81-4.55-10.51-4.79-16.38-.85l-.47.32c-1.53.53-3.29,2.21-4-.88a1.12,1.12,0,0,0-.08-.26c-.75-2.66-2.81-4-5-5.2l-.88-.49c-1.65-.92-3.32-1.83-5.35-3,4.31-1.57,8.42-.66,12.36-1.31h.09c4.77.15,9.53.64,14.31.56.52.25.57.15.58,0a44.62,44.62,0,0,0,6.07-.56,3.16,3.16,0,0,0,.32,0h0C129,143.32,133.26,142.71,137.49,143.81Z"/><path class="cls-17" d="M137.73,141.88c-4.3.85-8.78-.87-13,.83h0l-.26.11a44.62,44.62,0,0,1-6.07.56h-.58c-4.78.08-9.54-.41-14.31-.56h-.09c-3.67-1.9-7.66-.08-11.44-1a4.35,4.35,0,0,1,.46-.11,32,32,0,0,1,9-.79c1.23,0,2.46.07,3.68.09,3.48.06,4.16-.91,2.25-3.78-1.09-1.62-2.12-3.29-3.18-4.94.48-.48,1-1,1.43-1.46a10.54,10.54,0,0,1,3,3.93c.31.51.58,1.4,1,1.46,1.65.26.51-1.93,1.74-2.18a38,38,0,0,1,.13,4c-.19,2.15.58,2.86,2.79,2.88,2.36,0,3.31-.67,3.12-3.1a53.91,53.91,0,0,1,.3-6.19c.64,2.21.88,3.06,1.23,4.26,3-3,4.68-7.22,10.16-9.36-3.07,4.33-5.4,7.58-7.7,10.86-1.8,2.56-1.38,3.62,2,3.62,1.07,0,2.13,0,3.19,0h0C130.32,140.9,134.06,140.84,137.73,141.88Z"/><path d="M123.63,154.77,122.38,156l-.56-.37c-4.46-2.77-9.11-2.68-13.87-.75l-.44.18-1.15-1.17.47-.32c5.87-3.94,10.57-3.7,16.38.85h0C123.36,154.55,123.49,154.66,123.63,154.77Z"/><path class="cls-18" d="M33.3,81.1A9.2,9.2,0,0,1,32.52,75v0c1.5-.48.92-2.22,1.86-3,0,.67.1,1.35.13,2A15.23,15.23,0,0,1,33.3,81.1Z"/><path class="cls-16" d="M149.16,261.89h0l-.71.95h0c-3.85,3.43-8.37,5.8-12.89,8.19a2,2,0,0,1-2.19.8c-1.68.47-2.34,3-4.62,2.29h0c-1.14,1.47-3.4.11-4.46,1.78-.19.77-.5,2.7-1.27,1.31-1.37-2.42-2.53-.14-3.67-.48h0c-1.25.3-3.08.22-3.61,1-1.11,1.67-1.27,2.67-2.57.07-.79-1.6-3.57,0-4.8-1.73-.64-.06-1.69-.4-1.85-.15-2.09,3.14-1.88.51-2.19-.83-1.44-.22-3,.15-4.25-1-5.42-1.52-10-4.78-14.82-7.44s-8.48-6.54-12.07-10.56l-.46.06c.09,2.38-2.65,4.2-1.37,6.82a9.69,9.69,0,0,1,1.92,8.43c-2.29-3.52-5-5.92-6.14-9.41a14.55,14.55,0,0,1-3.92-6.88c-6-6.76-5.91-14.27-2.75-22.17.19-5.33.85-10.69-1.17-15.86-1.75,2.72.14,6.16-2.83,9v-7.1c-.28-2-1-3.27-2.86-1.23-.51.55-.44,1.69-1.24.3-.45-.77-1-1.45-1.7-.48-.37.55-.1,1.53-.12,2.31,1.67,4.87.86,9.85.5,14.82a28.82,28.82,0,0,1-1.45-9.79l-.21.12,0,0-.93,2h0c-.17,3.69.57,7.45-.81,11-.13,2.14-.09,4.31-.42,6.41-.5,3.25-1.53,6.51,1.53,9.13L52.18,258l25.49,31.62q3.77,4.67,7.52,9.35c4,7.5,10.7,7.69,17.92,6.53a64.58,64.58,0,0,1,19.28-.37c7.77,1.09,15.44,2.33,20.19-6.24a12.5,12.5,0,0,1,1.76-2.05,15.56,15.56,0,0,1,4-5l24-28.95,6.63-8,.11-.12c2.88-2.86,3.68-6.12,2.58-10.16-.64-2.34-.36-4.92-.48-7.4-1.49-4.41-.31-9-.8-13.46l-1.15,1.14q-.45,4.89-.88,9.76c-1.38-4.92-1-9.84-.73-14.75-3.22-.81-1.34,2.17-2.28,3.05.4,1.79.06,3.5-.8,6a12.21,12.21,0,0,1-.63-7,2.51,2.51,0,0,1,.29-1.19c-.41-1.26.94-3.06-.56-3.77-1.2-.56-1.09,1.09-1.4,1.87.26,1.49.45,3-1.42,3.61-1.42-1.61.87-4.18-1.45-5.54-1.14,6.43-1.88,12.86-.08,19.29a27.33,27.33,0,0,1,1.08,10.85c-.11.89.24,2-.78,2.67-3.31,2.2-4.47,5.89-6.31,9.11.06,2.26-1.62,3.6-2.79,5.2-1.83,2.65-2.91,6-6.87,6.73,2.33-2.25,1.7-5.66,3.53-8.06,1.88-2.55-1.38-4.32-1-6.64a1.57,1.57,0,0,0-.61,0C154,258.63,151.12,259.78,149.16,261.89ZM54.29,231.52c-.9-3.52-1.36-5.8-.21-9.65C54.92,225.58,55.73,227.84,54.29,231.52Zm36.43,68.13,13.73,2.06C99.71,302.47,94.8,304.76,90.72,299.65ZM104.5,286.8l-8-1.53c4.37-.51,7.26-.92,10,.49a23.88,23.88,0,0,0,15.68,0c2.43-1.2,4.95-1.13,8.84-.41l-6.75,1.44C117.73,290.28,111.12,290.38,104.5,286.8Zm20,15.06,14.08-2.21C133.76,305.05,128.87,301.88,124.52,301.86Z"/><path class="cls-19" d="M142.46,241.17c-4.13.32-8.08,1.57-12.12,2.26-3.54.61-7.34,0-10.88.82-6.4,1.39-12.63-.48-18.9-.74-6.42-.27-12.76-2.26-19.13-3.5-1.08,1.31-2.58.78-3.94.91l-.14,7,2,1.05a24,24,0,0,1-.07-4.86c.34-1.85,1.35-3.19,3.3-1.18l2.85.05a2,2,0,0,1,2.12.93l3,1.15c2.08-3.06,2.78-.14,3.92.9,1.74,1.47,2.83-.8,4.32-.77l3.89,1.73c1.22,1,2.45,1.88,3.69,0,3.83-1.27,7-1.35,7.21,4,.55-.32,1.1-.64,1.64-1,.84-4.76,3.94-4.08,7.21-3,1.28,1.89,2.52,1.2,3.76,0,1.73-1.29,3.45-2.29,5.07.14l3-1.09c1.93-2.95,3.57-3.54,4.4.64.22,1.1.79,1.22,1.64,1.1,1-1.61-.63-4.92,3.1-4.76.41-.88,1.24-1,2.08-1.17h0a1.46,1.46,0,0,0-.07-.55h0C144.43,241.17,143.44,241.1,142.46,241.17Z"/><path class="cls-20" d="M157.17,262.74l3.34,1.33c1.17-1.6,2.85-2.94,2.79-5.2-1.57-3-4.17-3.35-7.14-2.77C155.79,258.42,159.05,260.19,157.17,262.74Z"/><path class="cls-21" d="M143.41,242.89c1.81,3.62,2.44,7.24-.06,10.84h0l0,1a7.94,7.94,0,0,0,1,.2l1.91-.12c-.35-2.47,1.29-2.83,3.14-3a2.66,2.66,0,0,1,.16-.83h0l-1.13-1c-4.12-1.87-1.44-5.3-1.85-8l-1.09-.31h0C144.65,241.85,143.82,242,143.41,242.89Z"/><path class="cls-22" d="M153.4,248.22c3-1.76,2.34-4.18,1.22-6.69-.81-1.82-2-1.78-3.37-.64C151.77,243.39,149.09,246.83,153.4,248.22Z"/><path class="cls-23" d="M153.52,237c1.83-.15,2.61-1.74,3.75-2.83h0c.57-3.31-.41-6.3-1.9-9.19h0Z"/><path class="cls-24" d="M151.53,257.34c-.53-2,.14-4.55-1.26-6.48a2.46,2.46,0,0,0-.71.17h0a2.66,2.66,0,0,0-.16.83,37.72,37.72,0,0,1-.24,10h0c2-2.11,4.8-3.26,6.39-5.78l-1.31-2.31C152.91,254.61,154.05,256.92,151.53,257.34Z"/><path class="cls-25" d="M148.43,250.05l1.13,1h0a2.46,2.46,0,0,1,.71-.17l2.14-1,1-1.6c-4.31-1.39-1.63-4.83-2.15-7.33l-2.59,2A6.2,6.2,0,0,1,148.43,250.05Z"/><path class="cls-26" d="M151.53,257.34c2.52-.42,1.38-2.73,2.71-3.54,1.16-2.14,1.59-4-1.83-4l-2.14,1C151.67,252.79,151,255.31,151.53,257.34Z"/><path class="cls-27" d="M148.43,250.05a6.2,6.2,0,0,0,.23-7.15c-.35-1.12-1.16-1.13-2.08-.87C147,244.75,144.31,248.18,148.43,250.05Z"/><path class="cls-28" d="M178.37,234.63q.44-4.87.88-9.76c-1.86-1.24.32-3.78-1.61-5C177.33,224.79,177,229.71,178.37,234.63Z"/><path class="cls-29" d="M149.42,227.07c2-2.47,3.46-4.24,4.91-6h0l-.9-3.06h0A17.86,17.86,0,0,0,149.42,227.07Z"/><path class="cls-30" d="M174.56,229c.86-2.54,1.2-4.25.8-6l-1.14-2.15c-.11.39-.21.79-.29,1.19A12.21,12.21,0,0,0,174.56,229Z"/><path class="cls-10" d="M170.84,222.49c1.87-.66,1.68-2.12,1.42-3.61-1.44-3.06-1.44-3.06-2.87-1.93C171.71,218.31,169.42,220.88,170.84,222.49Z"/><path class="cls-31" d="M166,222.51c0-2.21,1.77-4.21.4-8A10,10,0,0,0,166,222.51Z"/><path class="cls-32" d="M63.22,255.1c3.16.39,6.49-.67,9.51,1l.46-.06a2.56,2.56,0,0,0,1.26-2.16c-1.46-3.08-.64-4.48,2.87-3.92,1,0,1.86,1.15,3,.56h0a.35.35,0,0,1,.06-.48l-1-1.15-2-1.05c-3.38.9-4.12-1.18-3.7-3.72.3-1.85.08-5.16,3.84-3.24,1.36-.13,2.86.4,3.94-.91-2.31-.54-4.94-.4-6.35-2.91-2.79,1.88-2.73-.94-3.61-2.2l.06-2.8h0v0c.21-2.7-.55-4.06-3.75-4.33-4.25-.35-6.31,1.42-7.31,5.18C57.31,240.83,57.2,248.34,63.22,255.1Z"/><path class="cls-31" d="M71.53,232.1l-.06,2.8c1.92-1.14,1.67-3.25,2.23-5,0-.1.28-.17.42-.16a1.41,1.41,0,0,1,.41.23c2.34-3-.53-6,0-9h0c-2,3.42-1,7.65-2.95,11.08v0Z"/><path class="cls-33" d="M51.05,234.65c.36-5,1.17-10-.5-14.82-.76,1.59.63,3.59-.95,5A28.82,28.82,0,0,0,51.05,234.65Z"/><path class="cls-34" d="M59.3,217.07c-.37-1.45-1-1.32-1.62-.2-.37.71.18,1.93-1.21,2.06V226C59.44,223.23,57.55,219.79,59.3,217.07Z"/><path class="cls-31" d="M49.35,225v0c.5-2.4-.85-4.55-1-6.87-1.66.48-.76,1.92-1.09,2.9l.26,5h0l.88,1.08h0Z"/><path class="cls-31" d="M62.21,215.2c-.85,3.37,0,5.76.75,8.3C63.6,221,64.21,218.38,62.21,215.2Z"/><path class="cls-28" d="M196.31,75h0v4.82l-.17,0L195,80c-.16-3-.32-6-.5-9,.6,1.28,1.19,2.56,1.79,3.85Z"/><path class="cls-35" d="M47.28,221c-1.84.11-2.48,1.48-2.49,2.92,0,1.59,1.41,1.91,2.75,2.05h0Z"/><path class="cls-3" d="M114.17,53.48A210,210,0,0,0,112.51,84,85.41,85.41,0,0,0,114,107.48c3.09-8.37,2.72-15.9,2.29-23.44C116.16,73.81,116.49,63.55,114.17,53.48Z"/><path class="cls-13" d="M105.63,130.88a16.15,16.15,0,0,0-7.55-6L97,126.1l7.24,6.24h0l1.42-1.46Z"/><path class="cls-36" d="M109.61,136.27c1.65.26.51-1.93,1.73-2.18h0a5.65,5.65,0,0,0-1.42-5.29,3.82,3.82,0,0,0-.28,1.13s0,.07,0,.1c-.15,1.8.64,3.52-1,4.78h0C109,135.32,109.22,136.21,109.61,136.27Z"/><path class="cls-4" d="M118.16,188.42c-1.21,1.21-1.1,4.22-3.58,3.2-2.32-1-1.52-4.16-3-5.92a4.59,4.59,0,0,0-1.23-.77c-3.83,9.25-7.6,18.54-12.2,27.45-1.22,2.37-2.42,4.7-1.62,7.49,2.17-1.62,3.41.57,5,1.24h0c1.79-3.16,4.32-2.35,6.89-1.28,1.63-.1,2.5,2.1,4.33,1.53l1.29-5.44.81.06c.42,2,.83,3.91,1.3,6.15l3.26-2.09a1.81,1.81,0,0,1,1.63-.53c3.7-.95,7.53-.24,11.27-.57.58-1.94-.29-3.61-1-5.25Q125.43,200.8,119.46,188A8.56,8.56,0,0,1,118.16,188.42Z"/><path class="cls-11" d="M114.58,191.62c2.48,1,2.37-2,3.58-3.2a1.61,1.61,0,0,1,1.3-.47c.26-2-.76-3.52-1.8-5l-3,3.67c.13-2.66-1.84-3.1-3.48-3.9a2.25,2.25,0,0,0-.81,2.26,4.59,4.59,0,0,1,1.23.77C113.06,187.46,112.26,190.66,114.58,191.62Z"/><path class="cls-37" d="M107.71,229c-.22-.11-.68.22-1.32.46,3.53,1.82,5.7,4.48,8.1,8.3,1.83-3.73,4.5-5.85,6.73-9C116.55,233,112.13,231.38,107.71,229Z"/><path class="cls-29" d="M121.09,219.5a11.46,11.46,0,0,0-1.63.53l6.13.77c.8.1,2,.29,1.46,1.28-1.16,2.07.29,1.78,1.29,1.55,2.45-.54,4-2,4-4.7C128.62,219.26,124.79,218.55,121.09,219.5Z"/><path class="cls-13" d="M169.4,207.89c5,.07,10.3,3.17,14.79-1.44a50.14,50.14,0,0,1-9.24.41C173.12,207.31,171,206.18,169.4,207.89Z"/><path class="cls-38" d="M54,206.8h0l-6.35,0c-.78.21-1.78-.05-2.14,1,4.64,2.72,9.28,0,13.92,0C57.9,206.17,55.78,207.41,54,206.8Z"/><path class="cls-39" d="M169.4,207.89c1.6-1.71,3.72-.58,5.55-1a26,26,0,0,0-13.73-.21l0,1.24Z"/><path class="cls-39" d="M54,206.8h0c1.76.61,3.88-.63,5.42,1.08h8.12C63.11,205.38,58.58,205.69,54,206.8Z"/><path class="cls-40" d="M95.76,223.73c-2.43-2.85-2.22-6.33-2.41-10C90.36,218.69,90.91,221.11,95.76,223.73Z"/><path class="cls-41" d="M134.39,213.05c1.43,4.25,1,7.53-1.81,11.29C138.11,221.06,138.63,217.52,134.39,213.05Z"/><path class="cls-42" d="M114.66,186.57l3-3.67c-1.89-1.93-4.15-2-6.48-.23C112.82,183.47,114.79,183.91,114.66,186.57Z"/><path class="cls-43" d="M96.55,219.87c.12,2.23,1.88,3.09,3.53,3.64,3.16,1.05,1.36-1.35,1.49-2.4C100,220.44,98.72,218.25,96.55,219.87Z"/><path class="cls-29" d="M73.7,229.91c-.56,1.74-.31,3.85-2.23,5,.88,1.26.82,4.08,3.61,2.2-.18-2.37-.37-4.74-.55-7.12a1.41,1.41,0,0,0-.41-.23C74,229.74,73.73,229.81,73.7,229.91Z"/><path class="cls-44" d="M121.42,180.89c-.5-3.46-.67-6.59-5.42-5.42C119.29,175.74,118.94,179.35,121.42,180.89Z"/><path class="cls-40" d="M107.59,181.11,112,175C107.65,174.84,108.28,178.61,107.59,181.11Z"/><path class="cls-43" d="M101.58,221.1c2.29-.44,4.79.22,6.89-1.28C105.9,218.75,103.37,217.94,101.58,221.1Z"/><path class="cls-45" d="M47.66,206.83l-6-3.19a6.25,6.25,0,0,0,3.84,4.22C45.88,206.78,46.88,207,47.66,206.83Z"/><path class="cls-46" d="M96.57,265.87l-1,0c-.68,1.24,1.11,3.28-.52,3.77-1.92.59-2.39-1.39-3-2.94a12.59,12.59,0,0,0-2.33-2.9l-1.07.07c-.11.73.39,1.76-.6,2.06-.39.12-1.24-.42-1.51-.88A23.69,23.69,0,0,1,85.28,262l-3,.9c-2.07-.5-1.56-2.9-2.9-3.94l-2.15-1.1c-2-.53-1.55-2.84-2.82-3.9a2.56,2.56,0,0,1-1.26,2.16c3.59,4,7.35,8,12.07,10.56s9.4,5.92,14.82,7.44l1.34-1.1C99,271.16,98.37,268.12,96.57,265.87Z"/><path class="cls-47" d="M63.22,255.1A14.55,14.55,0,0,0,67.14,262c1.66-.76,2.43,2.28,4.22,1-1.28-2.62,1.46-4.44,1.37-6.82C69.71,254.43,66.38,255.49,63.22,255.1Z"/><path class="cls-48" d="M106.58,285.76c-.69.37-1.71.06-2.08,1,6.62,3.58,13.23,3.48,19.85,0l-2.09-1A23.88,23.88,0,0,1,106.58,285.76Z"/><path class="cls-38" d="M145.6,262.77h0l-2.25.11c-1.83,3.74-1.83,3.74-3.92,2h-1c-2,1.16-1.67,4.15-4,5l1.14,1.07c4.52-2.39,9-4.76,12.89-8.19h0l-2.85-.06Z"/><path class="cls-49" d="M145.6,262.77h0l2.85.06h0l.71-.95h0a37.72,37.72,0,0,0,.24-10c-1.85.15-3.49.51-3.14,3C146.29,257.5,146.75,260.2,145.6,262.77Z"/><path class="cls-21" d="M115.48,274.79c-.07-1.29-.15-2.59-.23-3.88l-1.65-1c.14,3.6-.14,6.75-5.16,4.94l-.07,1.18c1.23,1.75,4,.13,4.8,1.73,1.3,2.6,1.46,1.6,2.57-.07.53-.78,2.36-.7,3.61-1C118.45,275.28,116.12,276.74,115.48,274.79Z"/><path class="cls-14" d="M104.45,301.71l-13.73-2.06C94.8,304.76,99.71,302.47,104.45,301.71Z"/><path class="cls-50" d="M138.6,299.65l-14.08,2.21C128.87,301.88,133.76,305.05,138.6,299.65Z"/><path class="cls-51" d="M153.64,270.8c4-.69,5-4.08,6.87-6.73l-3.34-1.33C155.34,265.14,156,268.55,153.64,270.8Z"/><path class="cls-52" d="M67.14,262c1.16,3.49,3.85,5.89,6.14,9.41A9.69,9.69,0,0,0,71.36,263C69.57,264.26,68.8,261.22,67.14,262Z"/><path class="cls-44" d="M106.42,271.91l-1.9-6-.48-.05h-.48c-1.61,2.09,2.67,6-2.14,7.09l-1.34,1.1c1.23,1.15,2.81.78,4.25,1A3.37,3.37,0,0,1,106.42,271.91Z"/><path class="cls-38" d="M127.42,273l1.33,1.16h0c2.28.73,2.94-1.82,4.62-2.29L131.54,268C128.9,268.58,130,272.27,127.42,273Z"/><polygon class="cls-53" points="132.06 259.14 132.05 259.14 132.05 259.14 132.06 259.14"/><path class="cls-53" d="M133.35,258.9l-1.29.24c.93,3-.59,5.86-.52,8.81l1.83,3.87a2,2,0,0,0,2.19-.8L134.42,270C132.29,266.44,133.94,262.56,133.35,258.9Z"/><path class="cls-54" d="M127.42,273l-2,0c-1.52.15-1.92-1.34-2.9-2h0a2.87,2.87,0,0,0-1.16,2.79c.6,1.25,1.92,1.51,3,2.17,1.06-1.67,3.32-.31,4.46-1.78h0Z"/><path class="cls-25" d="M106.42,271.91a3.37,3.37,0,0,0-2.09,3.17c.31,1.34.1,4,2.19.83.16-.25,1.21.09,1.85.15l.07-1.18Z"/><path class="cls-33" d="M121.33,273.72a5.65,5.65,0,0,1-5.85,1.07c.64,1.95,3,.49,3.87,1.93h0c1.14.34,2.3-1.94,3.67.48.77,1.39,1.08-.54,1.27-1.31C123.25,275.23,121.93,275,121.33,273.72Z"/><path class="cls-55" d="M54.29,231.52c1.44-3.68.63-5.94-.21-9.65C52.93,225.72,53.39,228,54.29,231.52Z"/><path class="cls-56" d="M106.58,285.76c-2.78-1.41-5.67-1-10-.49l8,1.53C104.87,285.82,105.89,286.13,106.58,285.76Z"/><path class="cls-57" d="M122.26,285.76l2.09,1,6.75-1.44C127.21,284.63,124.69,284.56,122.26,285.76Z"/><path class="cls-58" d="M115.22,256.23c-.49,3,.38,4.83,3.28,5.69l1.07-.07h0c5.32-2.36,5.62-6.32,3.65-11.11a20,20,0,0,1-.78-3.83c-3.27-1.09-6.37-1.77-7.21,3A36.15,36.15,0,0,1,115.22,256.23Z"/><path class="cls-59" d="M106.34,260.14c1.88,1.22,4,1,6.09,1.09,2.69-3.2.24-7,1.16-10.36-.21-5.31-3.38-5.23-7.21-4l-2,10Z"/><path class="cls-60" d="M98.59,258.12c1.9,1,4,2.22,4.89-1.19l-.79-10.05-3.89-1.73C98,247.47,96,249.32,96.24,252,96.58,254.22,96,256.82,98.59,258.12Z"/><path class="cls-60" d="M95.94,253l.3-1A1.67,1.67,0,0,0,95.94,253Z"/><path class="cls-61" d="M131.27,257.68c2.13-3.56.61-7.12,0-10.68-1.62-2.43-3.34-1.43-5.07-.14-.08,2.32,0,4.65-.26,6.95C125.38,259.69,125.54,259.84,131.27,257.68Z"/><path class="cls-62" d="M134.08,251.8c.07,1.65-1.67,4,.53,4.83s3.27-1.59,4.69-2.84c.94-1.87-.23-4.11.93-5.95a.11.11,0,0,0,0-.05.67.67,0,0,0,.09-.14c-.85.12-1.42,0-1.64-1.1-.83-4.18-2.47-3.59-4.4-.64C134.19,247.87,134,249.84,134.08,251.8Z"/><path class="cls-63" d="M89.38,253c1.63,1.69,2.52,5.44,5.94,2.13-1.3-3-.6-6.11-.84-9.17-1.14-1-1.84-4-3.92-.9C90.32,247.68,88.72,250.15,89.38,253Z"/><path class="cls-64" d="M131.81,259.14h-.36a.59.59,0,0,0,.31.09Z"/><path class="cls-64" d="M119.57,261.85h0l5.28.34h0c1.5-2.54,4.88-1,6.6-3l-.18-1.47c-5.73,2.16-5.89,2-5.33-3.87.21-2.3.18-4.63.26-6.95-1.24,1.25-2.48,1.94-3.76,0a20,20,0,0,0,.78,3.83C125.19,255.53,124.89,259.49,119.57,261.85Z"/><path class="cls-44" d="M131.27,257.68l.18,1.47h.61l1.29-.24c1.61-1.59,4.24-.13,5.67-2.89.8,3.7.63,6.35-.59,8.91h1c2.36-2.93-.32-7,2.15-9.88-.79-.36-1.86-.22-2.28-1.25-1.42,1.25-2.61,3.65-4.69,2.84s-.46-3.18-.53-4.83c-.09-2,.11-3.93.19-5.89l-3,1.09C131.88,250.56,133.4,254.12,131.27,257.68Z"/><path class="cls-65" d="M140.36,247.65l-.11.16c1.85.91.73,2.52.62,3.68-.2,2.16.57,2.69,2.48,2.24h0c2.5-3.6,1.87-7.22.06-10.84-3.73-.16-2.1,3.15-3.1,4.76a.67.67,0,0,1-.09.14Z"/><path class="cls-65" d="M140.22,247.79a.11.11,0,0,1,0,.05l0,0Z"/><path class="cls-66" d="M112.43,261.23c0,.47,0,.95,0,1.43l1.26,1.26h1.47c.26-2.1,2.81-.37,3.35-2-2.9-.86-3.77-2.71-3.28-5.69a36.15,36.15,0,0,0,0-6.33c-.54.33-1.09.65-1.64,1C112.67,254.26,115.12,258,112.43,261.23Z"/><path class="cls-67" d="M85.63,253.62l1.61.13c.11-3.29.23-6.59.34-9.88a2,2,0,0,0-2.12-.93C84.11,246.52,83,250.1,85.63,253.62Z"/><path class="cls-68" d="M73.65,244.16c-.42,2.54.32,4.62,3.7,3.72l.14-7C73.73,239,74,242.31,73.65,244.16Z"/><path class="cls-69" d="M80.4,250.08a.35.35,0,0,0-.06.48h0l.12,1.22,2.1,1.14,2.93,1h0l.14-.34c-2.67-3.52-1.52-7.1-.17-10.68l-2.85-.05C81.26,245.1,84.67,248.77,80.4,250.08Z"/><path class="cls-58" d="M82.61,242.89c-2-2-3-.67-3.3,1.18a24,24,0,0,0,.07,4.86l1,1.15C84.67,248.77,81.26,245.1,82.61,242.89Z"/><path class="cls-54" d="M104.42,256.92l2-10c-1.24,1.85-2.47,1-3.69,0l.79,10.05C103.79,256.94,104.11,256.93,104.42,256.92Z"/><path class="cls-70" d="M87.24,253.75l2.14-.79c-.66-2.81.94-5.28,1.18-7.94l-3-1.15c-.11,3.29-.23,6.59-.34,9.88Z"/><path class="cls-29" d="M95.32,255.09l.62-2.08a1.67,1.67,0,0,1,.3-1c-.2-2.68,1.8-4.53,2.56-6.85-1.49,0-2.58,2.24-4.32.77C94.72,249,94,252.13,95.32,255.09Z"/><path class="cls-3" d="M140.87,251.49c.11-1.16,1.23-2.77-.62-3.68l0,0c-1.16,1.84,0,4.08-.93,5.95.42,1,1.49.89,2.28,1.25l1.8-.28,0-1h0C141.44,254.18,140.67,253.65,140.87,251.49Z"/><path class="cls-3" d="M140.36,247.65l-.14.14,0,0Z"/><path class="cls-58" d="M139.43,264.92c2.09,1.7,2.09,1.7,3.92-2,.72-2.59,1.72-5.15,1-7.92a7.94,7.94,0,0,1-1-.2l-1.8.28C139.11,258,141.79,262,139.43,264.92Z"/><path class="cls-71" d="M143.35,262.88l2.25-.11h0c1.15-2.57.69-5.27.66-7.93l-1.91.12C145.07,257.73,144.07,260.29,143.35,262.88Z"/><path class="cls-72" d="M77.27,257.82q0-3.91,0-7.82c-3.51-.56-4.33.84-2.87,3.92C75.72,255,75.27,257.29,77.27,257.82Z"/><path class="cls-23" d="M79.42,258.92c.35-2.38-1.81-5.12,1-7.14l-.12-1.22h0c-1.15.59-2-.55-3-.56q0,3.9,0,7.82Z"/><path class="cls-73" d="M96.57,259.6v6.27c1.8,2.25,2.43,5.29,4.85,7.11,4.81-1.13.53-5,2.14-7.09C104.58,260.37,100.4,260.39,96.57,259.6Z"/><path class="cls-74" d="M85.46,254.86c2.2.3,2.83,1.64,2.76,3.74a43.2,43.2,0,0,0,.44,5.3l1.07-.07c-.1-2.13-.21-4.27-.31-6.47,5.62,1.48,5.62,1.48,6.16,8.54l1,0V259.6c3.83.79,8,.77,7,6.29H104l.48.05.1-3.61h0c-.1-1.26,1.23-1.38,1.72-2.18l-1.92-3.22c-.31,0-.63,0-.94,0-.89,3.41-3,2.15-4.89,1.19-2.59-1.3-2-3.9-2.35-6.12l-.3,1-.62,2.08c-3.42,3.31-4.31-.44-5.94-2.13l-2.14.79h0l-1.61-.13-.14.34h0A1.72,1.72,0,0,0,85.46,254.86Z"/><path class="cls-75" d="M89.42,257.36c.1,2.2.21,4.34.31,6.47a12.59,12.59,0,0,1,2.33,2.9c.61,1.55,1.08,3.53,3,2.94,1.63-.49-.16-2.53.52-3.77C95,258.84,95,258.84,89.42,257.36Z"/><path class="cls-76" d="M85.46,254.86c-2.7,2.3-.51,4.72-.18,7.1a23.69,23.69,0,0,0,1.27,3.12c.27.46,1.12,1,1.51.88,1-.3.49-1.33.6-2.06a43.2,43.2,0,0,1-.44-5.3C88.29,256.5,87.66,255.16,85.46,254.86Z"/><path class="cls-77" d="M79.42,258.92c1.34,1,.83,3.44,2.9,3.94l.24-9.94-2.1-1.14C77.61,253.8,79.77,256.54,79.42,258.92Z"/><path class="cls-33" d="M85.28,262c-.33-2.38-2.52-4.8.18-7.1a1.72,1.72,0,0,1,0-.9h0l-2.93-1-.24,9.94Z"/><path class="cls-78" d="M134.42,270c2.34-.88,2-3.87,4-5,1.22-2.56,1.39-5.21.59-8.91-1.43,2.76-4.06,1.3-5.67,2.89C133.94,262.56,132.29,266.44,134.42,270Z"/><path class="cls-67" d="M115.48,274.79a5.65,5.65,0,0,0,5.85-1.07,2.87,2.87,0,0,1,1.16-2.79h0c1.76-1.93-.09-5.35,2.82-6.8-.15-.65-.31-1.29-.46-1.94l-5.28-.34h0l-1.07.07c-.54,1.63-3.09-.1-3.35,2l.1,7C115.33,272.2,115.41,273.5,115.48,274.79Z"/><path class="cls-60" d="M104.62,262.32h0l-.1,3.61,1.9,6,2,3c5,1.81,5.3-1.34,5.16-4.94,0-2,.05-4,.08-6l-1.26-1.26C109.78,263.51,107.27,261.3,104.62,262.32Z"/><path class="cls-79" d="M115.25,270.91l-.1-7h-1.47c0,2-.05,4-.08,6Z"/><path class="cls-80" d="M125.39,272.92l2,0c2.57-.68,1.48-4.37,4.12-5-.07-2.95,1.45-5.81.52-8.81h0a.48.48,0,0,1-.29.1.59.59,0,0,1-.31-.09h0c-1.72,2.06-5.1.5-6.6,3h0c.15.65.31,1.29.46,1.94Q125.36,268.52,125.39,272.92Z"/><path class="cls-33" d="M122.49,270.93h0c1,.65,1.38,2.14,2.9,2q0-4.4-.08-8.79C122.4,265.58,124.25,269,122.49,270.93Z"/><path class="cls-44" d="M104.62,262.32h0c2.65-1,5.16,1.19,7.8.34,0-.48,0-1,0-1.43-2.08-.12-4.21.13-6.09-1.09C105.85,260.94,104.52,261.06,104.62,262.32Z"/></g></g></svg>