<svg xmlns="http://www.w3.org/2000/svg" viewBox="0 0 245.48 499.7"><defs><style>.cls-1{fill:#f7f7f7;}.cls-2{fill:#fcfcfc;stroke:#282828;stroke-miterlimit:10;stroke-width:6px;}.cls-3{fill:#030202;}.cls-4{fill:#efdea6;}.cls-5{fill:#f0dea7;}.cls-6{fill:#efdea7;}.cls-7{fill:#efdfa7;}.cls-8{fill:#eedea6;}.cls-9{fill:#eedea7;}.cls-10{fill:#eddda6;}.cls-11{fill:#eedea8;}.cls-12{fill:#eedda7;}.cls-13{fill:#eddea7;}.cls-14{fill:#eedda6;}.cls-15{fill:#efdda7;}.cls-16{fill:#eddda7;}.cls-17{fill:#eddba9;}.cls-18{fill:#eddca6;}.cls-19{fill:#ebdca5;}.cls-20{fill:#ebdba8;}.cls-21{fill:#ebdaa6;}.cls-22{fill:#e8dba6;}.cls-23{fill:#ecdca7;}.cls-24{fill:#f0f0ef;}.cls-25{fill:#261e11;}.cls-26{fill:#dddddb;}.cls-27{fill:#23180a;}.cls-28{fill:#2e2316;}.cls-29{fill:#2f2312;}.cls-30{fill:#332416;}.cls-31{fill:#ada791;}.cls-32{fill:#cac1a0;}.cls-33{fill:#2d260a;}.cls-34{fill:#2e2412;}.cls-35{fill:#d6cda6;}.cls-36{fill:#2f2514;}.cls-37{fill:#3a2e1d;}.cls-38{fill:#3a331f;}.cls-39{fill:#bcb696;}.cls-40{fill:#b8b192;}.cls-41{fill:#42361e;}.cls-42{fill:#2d2211;}.cls-43{fill:#d7d6d8;}.cls-44{fill:#c3bc99;}.cls-45{fill:#342c23;}.cls-46{fill:#312212;}.cls-47{fill:#322512;}.cls-48{fill:#453b22;}.cls-49{fill:#aaa483;}.cls-50{fill:#352b16;}.cls-51{fill:#5a574b;}.cls-52{fill:#362c18;}.cls-53{fill:#bab493;}.cls-54{fill:#a39d87;}.cls-55{fill:#443b20;}.cls-56{fill:#b1ac93;}.cls-57{fill:#786e62;}.cls-58{fill:#c4bc99;}.cls-59{fill:#342a18;}.cls-60{fill:#3a2f1f;}.cls-61{fill:#817d69;}.cls-62{fill:#9f977f;}.cls-63{fill:#423822;}.cls-64{fill:#3c311b;}.cls-65{fill:#382913;}.cls-66{fill:#392b1b;}.cls-67{fill:#2e200c;}.cls-68{fill:#443b21;}</style></defs><g id="Capa_2" data-name="Capa 2"><g id="Capa_1-2" data-name="Capa 1"><path class="cls-1" d="M237,247.93c-4.74,9.38-9.59,18.81-13.06,28.69-2.88,8.19-4.37,17-5.51,25.66-2.44,18.57-11.28,31.64-29.59,37.6-4.89,1.59-8.3,4.1-8.87,10.42a34.69,34.69,0,0,1-7.53,19.11c-3.46,4.21-4.38,9.15-5.4,14.5-2.79,14.59-.32,29.3-2,43.74-1.35,11.4-1,22.75-1.79,34.1-.56,8.47-4.83,16-7.79,23.9-1.24,3.31-4.61,4.77-7.37,6.44-11.87,7.2-29.33,5.77-40.1-2.94C97.88,481,87,474.93,73.48,474.92a17.41,17.41,0,0,1-12.37-5.32c-8.53-8.16-12.77-17.89-14.09-29.76a251.47,251.47,0,0,1-1.67-28.73c0-5.33.08-10.67,0-16-.1-4.81,2.25-9.1,2.19-14.06-.11-7.69-.38-15.38-2.47-22.67-2.53-8.79-3.58-17.91-8.44-26.21-8.43-14.37-10.1-30.3-7.11-46.66a20.64,20.64,0,0,1,1.94-4.57c1.62-3.57,2.41-7.1,1.09-11.08-1.83-5.51-1.84-11.41-2.83-17.11-1.55-8.94-3.81-17.59-8.81-25-8.78-13-10.72-28-13-42.78a82.55,82.55,0,0,1-.52-13.71,106.75,106.75,0,0,0-2.9-28.61c-2.65-10.27-1-20.74.41-30.68C7.11,95.72,7.25,79.55,7.3,63.3A55.26,55.26,0,0,1,12,41.22c3.89-9,10.94-12.31,19.94-13,2.48-.18,5,.27,7.48-.08C49.72,26.69,57,31.63,62,39.65c3.13,5,4.11,11.17,4.31,17.15.27,8.28-.21,16.6,1.88,24.76A10.13,10.13,0,0,1,67.9,85c-1.19,10.71-.64,21.07,4.48,31,2.72,5.26,2,11.3,2.15,17.06,0,1.83-.23,3.67-.12,5.49.34,5.74,2,7.07,7.78,7,2.31,0,4.61.44,6.92.58,5.51.33,9.8-.5,13.35-6.11,4.26-6.73,12.37-7.79,19.84-8.8a101.81,101.81,0,0,1,26.62-.11c4.3.54,7-1.3,7.39-6,1.05-12.16,1.45-24.46,3.62-36.42,1.26-6.93,1.59-14.11,3.75-20.81s2.2-13.39,3.35-20c2.3-13.28,7.67-25.3,13.72-37,3.11-6,9.54-7.71,16.39-7.83,4-.07,7.89.13,11.84.19,10.12.16,17.39,6.4,19.4,16.36,1.6,8,1.75,16,2.19,24,.88,15.78-2.5,31.32-1.48,47.07.35,5.35-1.39,10.81-1.87,16.24-1.28,14.59-4.95,28.92-4.07,43.75.37,6.38-1,12.78-2.92,18.9-1.25,4-.22,6.53,3.51,8.35,9.31,4.56,15.08,12.15,16.56,22.26C242.65,216.24,244.85,232.4,237,247.93Z"/><path class="cls-2" d="M237,247.93c-4.74,9.38-9.59,18.81-13.06,28.69-2.88,8.19-4.37,17-5.51,25.66-2.44,18.57-11.28,31.64-29.59,37.6-4.89,1.59-8.3,4.1-8.87,10.42a34.69,34.69,0,0,1-7.53,19.11c-3.46,4.21-4.38,9.15-5.4,14.5-2.79,14.59-.32,29.3-2,43.74-1.35,11.4-1,22.75-1.79,34.1-.56,8.47-4.83,16-7.79,23.9-1.24,3.31-4.61,4.77-7.37,6.44-11.87,7.2-29.33,5.77-40.1-2.94C97.88,481,87,474.93,73.48,474.92a17.41,17.41,0,0,1-12.37-5.32c-8.53-8.16-12.77-17.89-14.09-29.76a251.47,251.47,0,0,1-1.67-28.73c0-5.33.08-10.67,0-16-.1-4.81,2.25-9.1,2.19-14.06-.11-7.69-.38-15.38-2.47-22.67-2.53-8.79-3.58-17.91-8.44-26.21-8.43-14.37-10.1-30.3-7.11-46.66a20.64,20.64,0,0,1,1.94-4.57c1.62-3.57,2.41-7.1,1.09-11.08-1.83-5.51-1.84-11.41-2.83-17.11-1.55-8.94-3.81-17.59-8.81-25-8.78-13-10.72-28-13-42.78a82.55,82.55,0,0,1-.52-13.71,106.75,106.75,0,0,0-2.9-28.61c-2.65-10.27-1-20.74.41-30.68C7.11,95.72,7.25,79.55,7.3,63.3A55.26,55.26,0,0,1,12,41.22c3.89-9,10.94-12.31,19.94-13,2.48-.18,5,.27,7.48-.08C49.72,26.69,57,31.63,62,39.65c3.13,5,4.11,11.17,4.31,17.15.27,8.28-.21,16.6,1.88,24.76A10.13,10.13,0,0,1,67.9,85c-1.19,10.71-.64,21.07,4.48,31,2.72,5.26,2,11.3,2.15,17.06,0,1.83-.23,3.67-.12,5.49.34,5.74,2,7.07,7.78,7,2.31,0,4.61.44,6.92.58,5.51.33,9.8-.5,13.35-6.11,4.26-6.73,12.37-7.79,19.84-8.8a101.81,101.81,0,0,1,26.62-.11c4.3.54,7-1.3,7.39-6,1.05-12.16,1.45-24.46,3.62-36.42,1.26-6.93,1.59-14.11,3.75-20.81s2.2-13.39,3.35-20c2.3-13.28,7.67-25.3,13.72-37,3.11-6,9.54-7.71,16.39-7.83,4-.07,7.89.13,11.84.19,10.12.16,17.39,6.4,19.4,16.36,1.6,8,1.75,16,2.19,24,.88,15.78-2.5,31.32-1.48,47.07.35,5.35-1.39,10.81-1.87,16.24-1.28,14.59-4.95,28.92-4.07,43.75.37,6.38-1,12.78-2.92,18.9-1.25,4-.22,6.53,3.51,8.35,9.31,4.56,15.08,12.15,16.56,22.26C242.65,216.24,244.85,232.4,237,247.93Z"/><path class="cls-3" d="M90.45,394.49c0,17.63-.11,35.26.08,52.88a10.55,10.55,0,0,1-5.94,10.15c-3.74,1.92-8.45.79-10.43-2.35-3.74-5.93-9.83-10.83-9.77-18.78,0-1.5,0-3,0-4.49,0-21.37-.09-42.73,1.06-64.08a45.42,45.42,0,0,0-3.78-20.43c-1.85-4.4-3-8.91-1.18-13.58.69-1.81-.12-2.57-1.25-3.76-8.7-9.1-12.29-20.32-13-32.61a10.72,10.72,0,0,1,3.73-8.92c3.91-3.5,5-8.21,2.7-12.87A25,25,0,0,1,50.43,266c-1.22-20.26-6.17-39.31-17.13-56.69-3.88-6.14-7.46-12.79-4.83-20.67a2.1,2.1,0,0,0-.13-1.46c-4.43-8.11-2.89-16.92-2.85-25.49,0-8.36,0-16.58-3-24.58s-.17-16.24,1-24.09c1.41-9.79,1.38-19.34,1.22-29.14-.15-9.11-.87-18.53,1.79-27.58.8-2.73,1.52-5.45,3.53-7.62,4.58-5,12.67-4.26,15.51,1.81,3.37,7.2,4.83,14.89,2.4,22.77-.58,1.9-.72,3.33.34,5.12a9.15,9.15,0,0,1,1.55,5.17c-1.37,11.65.37,23.12,1.57,34.63.08.8-.05,1.9.42,2.34,6.77,6.38,5.62,14.55,4.9,22.46-.7,7.75-.49,15,3.37,22.24,3,5.71,4.85,12.2-.36,18.15-1,1.17-.21,2.21.46,3.13,3.59,4.92,4.43,10.69,5.13,16.49A154.07,154.07,0,0,0,69,223.06a27.54,27.54,0,0,0,4.69,9.86c1.28,1.68,2.27,4.75,4.25,4.47,2.42-.35,1.07-3.89,2.13-5.46,2.85-4.21-.52-7.69-.58-11.36-.14-8.3-6.17-14.88-5.52-23.32.22-2.85-2-5.89-3.14-8.84q-5.35-13.78,5.72-21c8.82-5.71,21.89-5.69,27.61.11,4.34,4.41,4.43,10.21,4.92,15.84.15,1.64-.16,3.33.82,4.84,3.55,5.41,6,10.9,4.48,17.82-.55,2.54,1.45,5.65,2.42,8.46a2,2,0,0,0,1.53.94,1.27,1.27,0,0,0,1.2-1.76c-3.77-6.6,2.65-12.33,1.56-18.74-.29-1.65.31-3.35-1.86-4-3.31-.95-4.3-3.54-4.32-6.54,0-6.26-3.57-12.54.79-18.87,1.09-1.57-.5-4.81-.38-7.27.3-6.1,3.71-9.19,9.75-8.45,2.94.36,5-1.66,7.65-1.79,4.86-.24,9.55,1.28,14.59.54,3.38-.5,7.11,2,7.48,6.56.41,4.94,4.47,7.07,7.7,9.47,2.34,1.74,5.18,1.8,4.49-3-.75-5.24.95-10.23,2.71-15.1,4.8-13.27,7.73-26.8,6.61-41-.36-4.65,0-9.38,3.06-13.33a4.66,4.66,0,0,0,.69-3.75c-.5-4.52-.48-9.15,1.33-13.3,3.8-8.75,1.76-18.41,4.66-27.29.7-2.17.91-4.55,2-6.61,2.45-4.53,4.76-9.06,5.86-14.2,1-4.49,3.78-7.31,8.9-7,4.63.33,8.3,3.08,8.87,8,.79,6.73.74,13.55,1,20.32.36,9.64-2,18.74-2.84,28.11-.18,2.07.64,4.24,1,6.36.44,2.3,1.3,4.72.31,6.9-3.94,8.71-.56,18.39-4,27.26s-1.82,18.13-2,27.24c-.17,7.88-.63,15.65-4.4,22.8a4.31,4.31,0,0,0-.32,3.35A14.43,14.43,0,0,1,198,183.14c-1.91,2.6-1.31,4.07,1.63,5.17,6.24,2.35,12.36,5,17.72,9.07,5.14,3.93,6.8,8.82,5,14.91-.43,1.42-1.16,2.68-.08,4.22,3.19,4.57,2.37,9.48.89,14.38a82,82,0,0,1-6.88,15.5c-7.24,13.27-12.45,27.16-14.17,42.33-.67,5.92-2.45,11.73-4,17.51a19.22,19.22,0,0,1-11.18,13.26c-5.77,2.59-11.36,5.6-17.62,6.89-1.63.34-2.33,1.23-3.12,2.72-2.67,5.06-5.08,9.84-4.06,16,.65,3.94-1.78,7.83-4.68,10.69-6.12,6-7.92,13.61-8.8,21.7a341.21,341.21,0,0,0-1.76,38.36c0,9.5-.73,18.93-1.59,28.38a34.14,34.14,0,0,0,.29,8c.61,4.1,1.1,7.95-3.16,10.62-1.48.92-.91,2.74-1,4.19-.26,8.35-5.44,12.71-13.62,11.55a6.3,6.3,0,0,1-3.8-2c-4.83-4.87-9.82-9.5-16.89-11.09-3.17-.72-3.73-3.47-3.82-6.28-.39-12.46-.81-24.92-1.14-37.39-.4-14.79-.79-29.58-1-44.38-.1-5.74-2.53-10.61-5.05-15.5-.44-.85-.82-2-2.1-1.74-1.09.21-1.52,1.16-1.89,2.12C90,367.67,89.92,373.37,89.63,379c-.27,5.15-.06,10.32-.06,15.49Z"/><path class="cls-4" d="M133.39,470.09c-2.56,2.61-4.13,2.09-4.74-1.48-1-6-1.64-12.05.24-19.53-5,5.37-3.47-.95-6-.86-.64,6.66,4.65,12.78,2.37,20.08-1.78-7.39-6.2-13.63-5-21.23-2-2.86-.46-6.1-1-8.49,0,6.94-.86,14.48-.59,22.05,0,1,.58,2.51-1.38,2.49-.81-1.73-2.6-2.17-4-3.07-2.36-3.65-1.69-7.79-1.17-11.59,1.16-8.54.54-17.18,1.84-25.67.53-3.47-1.9-1-2.65-1.94,3.44,8.43,1.47,16.83.9,25.2-1.26,1.88.57,5.27-3,6-1.45-24.35-1.49-48.74-1.94-73.89,2.87,2.52,2.2,6.06,4.64,8.76.46-5.14-1.55-8.93-3.19-12.75-2.74-6.41-6.09-12.55-8.4-19.17-1.13-3.23-.86-5.84,1.54-8.19a7.54,7.54,0,0,1,8.27-1.8c3.29,1.09,6.27,3.16,9.9,3.23,1.85.67,1.61,1.77.57,3s-2.52,1.39-3.74,2.49a27.73,27.73,0,0,1,8.35-3.61c7.2-3.38,14.36-6.83,21.62-10.09,2.64-1.19,5.81-3,8.25-.23s1.31,6.37-.55,9.25a53.88,53.88,0,0,1-11.54,12.8,5.88,5.88,0,0,1-2.45,3.82c1.12-.33,2-2.62,3.73-1.3.79.58.53,1.79,0,2.71-3.72,17.36-3.44,35-3.82,52.62-.15,6.82-.11,13.63-1.29,20.37-1.56,2.55.83,5.8-1.48,8.21-2.69-1.51-1.42-4.49-2.47-6.59-.28-.57.91-2.23-1.07-1.71-1.14.3-1.88.84-1,2,6.3,8,1.18,17,2.46,25.46C136.06,469.34,134.33,469.35,133.39,470.09Z"/><path class="cls-5" d="M160.16,310c-2.76-2.34-.35-4.43.33-6.59.93-4.42,4.7-6.72,7.32-9.88,1.27-1.53,2.36-3.22,4.22-5.7-4.46,5.59-7.9,10.6-13,14.08-1.63-4.21,1.42-6.94,3.46-9.69a452.81,452.81,0,0,0,25-37.89c3.73-6.25,6.39-12.54,6.31-20.1-.08-8.88,8.56-16.31,17.43-16,2.13.06,2.88.9,3.09,2.94.32,3.05-.72,5.85-1.21,8.76-.62,5-3.13,9.26-5.19,13.72-.86,1.85-2.53,3.58-1.49,5.94.28.88.56,1.76-.13,2.58a108.32,108.32,0,0,0-10.14,35.66c-.32,3.18-1.1,6.2-4,8.14-3.41,3.93-5,8.95-7.78,13.23-1.39,1.89-.16,5-3,6.22-5,2.13-9.72,5.28-15.26,5.13-4.2-.12-4.9-3.67-4.68-7.25.66-2.64.42-5.61,2.72-7.68C162.47,306.77,162.09,309.1,160.16,310Z"/><path class="cls-6" d="M75.3,257.16c.51,2,.87,4.13,1.55,6.11.87,2.53-.4,3.63-2.76,4.76-.48-2.95.67-6.15-2.21-8.46-.3.77-.64,1.2-.59,1.57,1.16,8.47.56,8-7.88,11.8-3.92,1.77-6.06.4-6.47-3.8-.68-7.12-1.17-14.26-2.55-21.31-2.59-13.32-6.16-26.23-13.7-37.77a62.58,62.58,0,0,1-6.42-13c-1.14-3.16-1-5.89,2.2-7.82.51-.73,1.19-.61,1.9-.4,2,3.56,1.9,7.9,4.26,11.14a7.79,7.79,0,0,1-.84-3.94c.28-.72.67-1.26,1.57-1,.45.48.85,1.29,1.37,1.37.81.14,1-.63.8-1.35-.4-1.26-.86-2.51-1.26-3.78-1.53-4.83-.57-5.91,4.55-5,5.36.93,7.92,4.76,8.92,9.57,1.39,6.65,2.34,13.4,3.41,20.12,1.59,10.07,5.21,19.15,12.25,26.76a32.51,32.51,0,0,1,7.19,11.28c1.18,3.39,1.41,6.65-1,10-1.91-2.81-1.17-6.43-3.27-8.94a19.33,19.33,0,0,1-1.79-1.44C74.81,254.11,74.5,255.79,75.3,257.16Z"/><path class="cls-7" d="M72.4,379a64.5,64.5,0,0,1-.87-17.56c1.92,1.21,1.16,3.57,3.45,6,0-6.57-1.44-11.52-4.45-16A34.73,34.73,0,0,1,66,341c-.78-2.82-.44-5.3,2.2-7s4.77-.48,6.84,1.11a34.83,34.83,0,0,1,10.83,12.82c1.54-3.07-1.11-4.76-.86-6.82.19-.14.32-.33.44-.33,4.07.16,9.25-1,11.16,3.39s-2.86,6.6-5.51,9.07c-7.17,6.67-7.15,15.54-7.36,24.09-.4,16.3-.75,32.61.41,48.92.52,7.27.09,14.6.09,22-2.06-.18-1.08-3.27-3.35-3.15-1.61,2.18,1.43,4.33-.53,7.61-7.54-7.61-4.08-17-5.51-26.15-3,4.76-1.2,9.7-3,13.9-2.84-10.75-.82-21.55-.54-32.32a47.56,47.56,0,0,1,2.19-9.46c1.5-4.14,2-8.37-.11-12.46C72.22,383.85,73.4,381.27,72.4,379Z"/><path class="cls-6" d="M202.42,109.32c-1.36,7.09-3.46,14.05-3.23,21.42a138.12,138.12,0,0,1-.92,24.39,21.68,21.68,0,0,1-2.22,7.62c-1.61,2.86-3.93,3.66-7.17,2.57-3-1-4.21-2.7-3.61-5.92.24-1.26,1.4-2.79-.24-4.23-3.16,2.15-.17,8.15-5.47,8.83-2.05-2.4-.15-4.72.4-6.89,1.19-4.79,3.3-9.33,3.92-13.57-1.91,6.79-3.88,14.29-6.8,21.5-3.73-.12-4.13-2.81-4.11-5.59,0-3.87,1.26-7.52,2.57-11.11,5.07-13.87,7.82-28.11,6.87-42.94a20.7,20.7,0,0,1,0-2.49c.2-3.51-.06-7.33,5.11-7.45,7.16-.17,7.75.33,8.17,7,.05.77.23,1.54.42,2.78,3.18-2.71.91-6.11,2.09-9.37,3.2,4.9,1.32,9.55.79,14.07,1.76.09,1-1.81,2.14-1.9S202.66,108.2,202.42,109.32Z"/><path class="cls-4" d="M31.4,124.23c4.41-1.49,8.88-1,13.27-.16s5.75,4.2,6.28,8.06c.57,4.16-.1,8.31-.54,12.44-.82,7.77-.07,15.1,3.69,22.26,4.53,8.63,3.44,11.87-5.88,14.56-15.78,4.57-16.41,5.22-16.91-11-.12-3.83-.16-7.68.08-11.49a55.85,55.85,0,0,0-2.62-22.14c-1.29-3.7-2.38-7.71-.39-11.67,4.5,4,6.24,9.3,6.93,15,.6,4.93-.92,9.84-.49,14.78.35.64,1.29-.3.67-.05-.15.06-.21,0-.28-.1-1.45-2.4,0-4.78,0-7.18.23-5.82.55-11.6-2.79-16.92C31.33,128.87,30,126.67,31.4,124.23Z"/><path class="cls-6" d="M68.86,282.33c.82,2.71,3.12,4.38,4.12,7.84-3.74-1.24-7.06-2.07-10.15-3.43-4-1.75-4.33-4.19-1.32-7.31,9-9.36,21.13-10.31,31.12-2.43,2.21,1.75,4.44,3.46,6.67,5.18a16.89,16.89,0,0,1,6.75,13.34c0,.87,2.55,5-2.15,2.89-.34,2.34-3.51,3.81-1.87,6.81,1.55,2.83,2.67,5.61-.61,8.41s-6.51,3.07-10.23,2c-4-1.17-6.4-4.14-8.08-7.69a132.84,132.84,0,0,1-6.72-16.11C75.08,287.74,73.16,284,68.86,282.33Z"/><path class="cls-6" d="M159.16,245.85c5.46-11.84,5.12-24.58,5.86-37.17a41.8,41.8,0,0,1,1-7.4c.35-1.43-.23-4.39,2.62-3.56,2.14.62,5.11,1.2,4.6,4.82-.84,6,.31,12.12-1,18.15,4.23-5.38,2.1-11.93,3.43-17.8,4.7,1.83,7.11,5.85,6.43,11.12A31.68,31.68,0,0,1,179,224a46,46,0,0,0-4.6,22.24,71.89,71.89,0,0,1-1.21,15.9c-.7,3.6-1.71,7.08-4.76,10.05-1.19-1.68.95-3.36-.53-4.79-2.49,1.46-2.31,5.31-4.93,6.31s-5.21-.42-7.45-1.93c-4-2.67-3.51-5.92-1.08-9.36.69-4.36,4.4-7.14,5.8-11.12.37-1,2.24-2.71-.75-3C158.58,247.58,158.84,246.72,159.16,245.85Z"/><path class="cls-6" d="M124.9,291.48c.35-1,.4-1.15.46-1.3.72-2-2.67-3.94-1.22-5a14,14,0,0,1,9.41-2.43,4,4,0,0,1,3.51,5.51c-3.13,8.59-1.77,17.31-1.83,26.06,0,7.28-6.46,9-11.93,10.92-4.39,1.57-8.59,1.35-12.51-2.55,2.13-.72,3.63,1.29,5.14-.14-.45-1.91-3-1.44-3.68-3.46.51-1.26,2.52.63,3.11-1.16-.87-2.29-5.19-1.13-5.11-4.21a36.81,36.81,0,0,1,1.45-7.31,8.25,8.25,0,0,0-.83-6.42c-2.46-4.73-1.23-10.4-2.15-15.63-.45-2.54,2.45-2.61,4.5-2.07A18.1,18.1,0,0,1,124.9,291.48Z"/><path class="cls-6" d="M185,205.32c-4.82-7-12.13-10.71-19.69-13.63-5-1.93-7.28-6.34-10.8-9.6-.26-.24.1-1.16.18-1.91,3,.89,4.06,4.2,7.27,5,.24-3.14-2.41-4.22-4-5.64-2.72-2.49-2.51-4.76-.32-7.13s4.81-1.79,7.06.13a12,12,0,0,1,2.89,3.4c4.14,8,11.47,11.62,19.47,14.44,5.79,2.05,11.55,4.21,17.2,6.6a45.51,45.51,0,0,1,8.22,4.63c2.59,1.8,5.43,4,4.29,7.69s-4.51,5.27-8.29,4.92-6.23,1.79-8.93,3.68c-3.22-.57-3-4.07-4.94-5.76a18.11,18.11,0,0,0-2.74-1.65c-2.5-1-1.47-5.48-5.19-5.31C186.15,205.5,185.6,205.76,185,205.32Z"/><path class="cls-8" d="M92.61,169.4c.12,1.69-2.94,1.28-2,3.63,3-.44,6.19-1.7,9.6-.43-.94,2.2-4,.48-4.71,2.75.12.25.27.73.35.72,5.41-.81,7.56,1.51,7,6.89-.45,4.71,1.87,8.61,4.07,12.57,3.78,6.83,2.37,9.52-5.19,10a38.27,38.27,0,0,0-10.15,2.31c-7.42,2.56-10.5.44-11.14-7.51-.1-1.14,0-2.29,0-3.71,2.61.77,4.07,3.46,7.18,4C87,198,84.91,197.35,83.65,196a30.78,30.78,0,0,1-6.34-9.45c-3.63-8.8-1.58-13.34,7.48-16.21C87.31,169.58,89.89,168.82,92.61,169.4Z"/><path class="cls-9" d="M93.24,217.06c1.2-1.84-1.73-5,1.65-6,4.26-1.27,8.62-2.82,13.12-1.23,1.48.52,2,2.22,2.17,3.71a36.06,36.06,0,0,1,.47,6.94,36.09,36.09,0,0,0,3.67,18.26c4.39,9.52,1.84,13.62-8.44,14.63-8.4.83-9.38.19-11.5-8.18-1-3.86-1.71-7.78-2.48-11.68s-2-7.66-4.64-10.85a14.23,14.23,0,0,1-2.21-4.38c-.5-1.44-.59-3.32,1.11-3.87,2.52-.83,1.72,1.55,2.19,2.75.7,1.81,1.3,3.71,2.78,5.11.47-.49,2.57,2.25,1.72-.87C93,220,92.37,218.44,93.24,217.06Z"/><path class="cls-10" d="M145.92,253.42a3.57,3.57,0,0,1,1.55,3.21c.73,9.18-8.21,21.06-17.19,22.91a38.41,38.41,0,0,1-11.91.37c-4.44-.48-6.25-3-4.21-6.83,8.25-15.43,8.85-32.12,8.75-49,0-1.28-.77-3.49,1.42-3.55,1.6,0,1.43,2,1.6,3.22.69,5,.19,9.92-.36,14.89a83.9,83.9,0,0,0-.55,11.43c.11,4.41,1.77,8.2,6.29,9.82s8.48.05,11.8-3.19C144.15,255.7,145,254.5,145.92,253.42Z"/><path class="cls-11" d="M60.62,311.63c-1.69-.89-2.64,1.43-4.07.06l3.33-7.12c-3.2.47-3.14,3.56-5.39,4.31a24.29,24.29,0,0,1-2.31-11.08c.15-4.18,2.48-5.93,6.49-5.72,8.32.45,19,9.86,20.54,18.09.94,5-5.79,16.12-10.43,17.25-4,1-10.62-5.91-9.7-10.26C59.46,315.38,60.05,313.65,60.62,311.63Z"/><path class="cls-12" d="M193.2,52.37c-.39,6.22-1.13,12.1,2.49,17.45a47.2,47.2,0,0,1-.41-5c0-1.55-1.14-3.47,2-4.05,2-.37.65-3.24,1.28-4.86s-1.25-5.09,2.78-4.29c2.88.58,6.24,1.11,5.46,5.51-.59,3.27-1.07,6.57-1.75,9.82-1.24,5.91-1.81,11.72-.08,17.73,1.42,4.94-.87,7.51-6.08,7.9C187,93.47,183.82,90,186.67,78.5c1.75-7.06,4.66-13.86,3.56-21.43A4.11,4.11,0,0,1,193.2,52.37Z"/><path class="cls-13" d="M129.32,200.19c-2.73-1.19-2.78-3.18-2.09-5.77,2.39-9,2-17.72-3-25.93-1.45-2.41-2.78-5-2.92-7.86-.09-1.79-.4-4,1.74-4.74,2-.68,2.77,1.36,3.8,2.58a8.47,8.47,0,0,1,1.29,2.12c2.73,6.19,7.07,11.16,11.75,15.93a49.52,49.52,0,0,1,10.62,16.13c1.05,2.59,1.94,5.42-1.33,7.48-1.87-1.34-.75-3.58-1.86-5-1.53-.89-2-2.57-2.88-3.93,1.54,2.31,1.39,4.9,1.33,7.48,0,1.5-.91,2-2.26,1.93C138.78,200.38,134,201.2,129.32,200.19Z"/><path class="cls-14" d="M133.23,340a21,21,0,0,1-9.88,3.09c-2.6.06-5.15-.14-6.44-2.79s-.17-5.24,1.46-7.44,4.19-3.28,6.79-3.92a25.74,25.74,0,0,0,12.9-8.08,36.46,36.46,0,0,1,5.2-4.65c7.32-5.38,14.43-2.69,16.83,6.13.73,2.68-.56,4.08-2.39,5.41-3.35,2.43-7.33,3-11.24,3.83-2.51.53-5.08.92-7.22,2.53a2.18,2.18,0,0,1-2.05,1.5c-1.72,0-3.4.05-4.13,2C133.13,338.42,133.66,339.18,133.23,340Z"/><path class="cls-14" d="M130.4,207c.17-1.49.14-3.09,2.4-2.93,4.47.31,9,.36,13.41.9,3.87.47,5.22,3,4.47,6.81-1.22,6.26-4.5,12.24-2.47,19,.45,1.51-.77,2.83-2.41,3.32-1.11.34-2.22.69-3.36.93-7.13,1.5-7.1,1.48-8.19-5.71-.16-1,.19-2.39-1.59-3.15-1.37,2.87-.07,5.7.09,9.66-2.72-2.74-3.09-5.33-3.37-7.93-.66-6.22-.36-12.59-4.31-18.13-1.74-2.44,0-4.29,2.54-5.35,1.62,1.74-.41,4.33,1.49,5.87,2.83,1.55,2.83,4.57,3.79,7.1A53.66,53.66,0,0,1,130.4,207Z"/><path class="cls-15" d="M149.8,309.84c-7.48,2.17-10.76-.36-10.49-8a33.94,33.94,0,0,1,1.91-9.22c1.58-4.9,3.3-9.73,3.18-15-.05-2.11.63-4,2.88-4.73s3.52.68,4.62,2.13c2.3,3,5.75,3.75,9,4.81,3,1,4.34,2.82,2,5.48-4,4.49-7.74,8.94-8.59,15.3-.44,3.35-4.22.17-5.78,2.12.31,2.51,3.36.77,4.22,2.85-3,2.48-5.18-1.5-8.27-1.22C145.44,307.35,148.4,307.89,149.8,309.84Z"/><path class="cls-12" d="M107.24,324.28c2.65,3.55,6.74,7.15,4,11.85s-8,2.9-12.28,2.06c-5.71-1.11-11.37-2.48-17-4-6.63-1.82-7.67-6.14-2.81-10.85,3.53-3.44,7.37-5.94,12.41-3.2,2.74,1.49,6.48-1.65,8.63,2a3,3,0,0,1,.75.62C103.69,326.86,103.69,326.86,107.24,324.28Z"/><path class="cls-16" d="M39.92,89.26c2.17-2.89.75-5.89,1.59-8.74,2.74,1.67,2.47,4.28,2.31,6.64-.57,8.44-2,16.88,1.3,25.15.51,1.27,1.38,3.18-1,4.15-3.46,1.4-4.4-1.21-5.56-3.8-2.12,2.32-.1,4.39-.51,6.31-9.88.21-10.23.13-8-9.37a61,61,0,0,0,.33-24.73c-.88-5.11,2.75-4.94,5.66-5.34,4.07-.56,2.44,3,3,4.87C39.43,85.78,38.72,87.39,39.92,89.26Z"/><path class="cls-17" d="M85,247.19c.28-4.14.55-8.29.85-12.43.06-.81.09-1.71,1.21-1.85s1.48.71,1.66,1.48c1,4,2.09,8.07,2.71,12.16a81.54,81.54,0,0,0,9.33,27.75c.55,1,1.78,2,.6,3a3.35,3.35,0,0,1-3.72.39,18.09,18.09,0,0,1-6.57-5.82C85.4,264.5,84.89,256,85,247.19Z"/><path class="cls-18" d="M153.15,167.09c-2.22.57-3.09-3.07-5.41-1.37-.24,1.15.81,1.21,1.41,1.68,4.27,3.32,4.16,6.36-.21,9.62-2.09,1.57-3.49.06-4.76-1.08-5.67-5-8.6-12.1-13-18.09-1.28-1.74-.12-3.16,1.86-3.61a6.25,6.25,0,0,1,5.62,1.22c3.9,3.22,7.67,6.58,12.62,8.26A2.63,2.63,0,0,1,153.15,167.09Z"/><path class="cls-19" d="M184.15,170.31c1.49,0,3-.05,4.47,0,6.6.27,8,3,4.65,8.89-4.09,7.15-7.73,7.67-13.36,1.83a11.14,11.14,0,0,0-4.38-3.13c-1.64-.58-3.07-1.6-2.72-3.6s1.57-3.73,3.9-3.85,5,0,7.44,0Z"/><path class="cls-20" d="M206.71,38.7c.27,8.95-3.75,11.94-12.81,9.67-2.19-.55-1.64-1.77-1.08-2.89,2.8-5.59,6.18-10.92,7.11-17.3a2.3,2.3,0,0,1,2.49-2,3.54,3.54,0,0,1,3.29,3.18C206.16,32.44,206.39,35.58,206.71,38.7Z"/><path class="cls-21" d="M109.53,255.84c5,0,7,2.67,5.89,6.71s-3.73,7-6.15,10.18c-1.33,1.75-2.57.88-3.76-.19-3.39-3-4.78-7.12-6-11.3a2.17,2.17,0,0,1,1.43-2.82C104.14,257.4,107.33,256.5,109.53,255.84Z"/><path class="cls-22" d="M37.26,54.18c.85-2.3,2.1-2.69,3.16-.31A26,26,0,0,1,42,71.43c-1.13,4.21-5.21,4.38-8.72,4S31,72,31,69.92a44.73,44.73,0,0,1,2.41-15.71c2.31-2.39,2.78-.28,2.65,1.33-.19,2.41-.92,4.78-.67,7C35.25,59.76,35.41,56.78,37.26,54.18Z"/><path class="cls-23" d="M132.32,243.15c3.14-3.76,7.81-3.57,12-4.54,1.23-.28,1.74.72,1.26,1.94-1.69,4.32-2.65,9-5.79,12.63s-6.4,4-9.48,1c-.76-.87-.41-1.64.18-2.4C132.68,249.22,129.59,245.56,132.32,243.15Z"/><path class="cls-24" d="M187.86,230.06c-1,4.78.9,11.63-3.36,17.3-.85,1.14-1.29,3.14-3.15,2.52-1.57-.52-.84-2.3-.9-3.54a35.36,35.36,0,0,1,3.72-18.79c.62-1.17,1-2.78,2.7-2.28C188.44,225.73,188.47,227.19,187.86,230.06Z"/><path class="cls-25" d="M111.2,446.07c.37-8.25,2.14-16.55-1.17-24.64-.45-1.1-1.49-2.78.22-3.49s1.22,2.08,2.55,2.34c1.14-1.21-.06-3.18,2.53-4.43-.68,15-1.33,29.62-2,44.2l-2.14-1C109.26,454.7,111.18,450.38,111.2,446.07Z"/><path class="cls-26" d="M158.51,222a57.91,57.91,0,0,1-3.13,16.77c-.4,1.09-1,2.3-2.45,1.84a2.31,2.31,0,0,1-.66-2.12c3.85-6.17-.46-13.51,2.88-19.73a9,9,0,0,0,.25-1c.38-1,.53-2.61,2-2.41s1,1.81,1.12,2.89S158.51,220.21,158.51,222Z"/><path class="cls-27" d="M133.39,470.09a4.4,4.4,0,0,0,1.74-4.24c-.17-2.81-.08-5.65,0-8.47.17-6,.09-12-4.15-16.92a2.61,2.61,0,0,1-.56-3c1.71-.4,2,1.76,3.35,2.16,1.52-1.11-.41-3.31,2-4.62.55,4.5,1.08,8.75,1.6,13a9,9,0,0,1,.09,8c-2.5,3.2-.76,6.89-1.16,10.33C136.12,468.34,136.38,470.38,133.39,470.09Z"/><path class="cls-28" d="M72.4,379c5.24,9.92,4.08,19.6-1.06,29.13-2.44-3.82-3-7.82-1.13-12.05,1.87,1.86,1.06,3.87.55,5.89a46.37,46.37,0,0,0,1-14.25c-.2-1.77-.31-2-1.27-1.4C69,383.3,72.72,381.66,72.4,379Z"/><path class="cls-29" d="M31.4,124.23c5.79,10.49,5.72,21.73,4,33.86-2.32-3.39-2.18-6.76-1.61-10,1.52-8.51-1.46-15.85-5.44-23C29.08,123.78,30.33,124.3,31.4,124.23Z"/><path class="cls-30" d="M177.08,165c.64-9.19,5.69-17.26,6.27-27.11,2.68,2.69,1.67,5.15,1.32,7.43-1,6.4-4.34,12.16-5.11,18.64Z"/><path class="cls-31" d="M206.3,252.14l-1.06-2.06a74.74,74.74,0,0,1,8.94-18c1.22-3.46,2.43-6.92,2.5-11.09C219.9,225.74,216.22,236.25,206.3,252.14Z"/><path class="cls-32" d="M159.16,245.85c.21.84.19,1.79,1.13,2.27.64,6-3.48,9.33-7.17,12.91-1.08.08-.72,2-2.47,1.56C151.78,256.13,155.56,251,159.16,245.85Z"/><path class="cls-33" d="M117.38,463.12c2.28-2,1-4.59,1-6.9.11-8.19,0-16.39.77-24.65a48,48,0,0,1,1.16,15.5c-2.2,4.39-.2,9.07-1,13.55C119.2,461.56,120.78,464.53,117.38,463.12Z"/><path class="cls-34" d="M186.36,204.07c.15-2,1-2.5,2.19-.72,1.44,2.15,2.59,4.49,3.86,6.75A13.35,13.35,0,0,1,195.5,221c-1.6,1-3.18,1.84-4.27-.62.49-4.16-2.12-7.45-3.23-11.16A49.24,49.24,0,0,1,186.36,204.07Z"/><path class="cls-35" d="M193.36,301.13c-1.31,4.11-2.32,8.37-6.06,11.16-1.07.06-1.37-.6-1.49-1.52-.57-4.69,1.73-8.31,4.5-11.69.67-.81,1.85-1.71,3-.7C194.15,299.12,193.81,300.2,193.36,301.13Z"/><path class="cls-36" d="M159.05,301.92c3.8-6.23,10.18-10.31,14-16.62-1.74,7.75-7.94,12.37-12.52,18.12Z"/><path class="cls-37" d="M193.36,301.13c-.56-.69,1-2.81-1-2.26-3.24.91-6.43,10-5.06,13.42-.69,1.18-1.46,2-2.09,0-.33-1,.29-2.3-.82-3.14.82-5.45,2.73-10.26,7.78-13.23C193.67,297.42,195.81,298.75,193.36,301.13Z"/><path class="cls-38" d="M214.18,232.07a93.28,93.28,0,0,1-8.94,18c-1.41-.41-1.19-1.35-.73-2.32q4.29-8.94,8.6-17.86C213.41,230.65,213.24,231.63,214.18,232.07Z"/><path class="cls-39" d="M70.48,386.29c.58-.55,1-2.82,1.92-.24,2.15,5.81,1,11.33-1.44,16.79-1.31-.93-.68-2.22-.74-3.34s0-2.3,0-3.45Z"/><path class="cls-40" d="M124.1,181.33c-.39,1.35.46,3.75-1.87,3.81-2,.06-1.46-2.27-1.72-3.55-.52-2.58-.7-5.23-1-7.86-.11-.89.08-1.71,1-2s1.5.48,1.76,1.27A27.5,27.5,0,0,1,124.1,181.33Z"/><path class="cls-41" d="M129.32,200.19c4.14.1,8.3,0,12.43.34,3.7.27,4.14-1.31,3.4-4.44s-2.87-5.38-3.91-8.41a9,9,0,0,1,6.08,7.47c-.4,6.67-4.92,6.8-9.85,6.14C134.75,200.93,131.8,202.27,129.32,200.19Z"/><path class="cls-42" d="M153.12,261c2-4.53,6.27-7.78,7.17-12.91,0-1.32.33-2.36,2-1.91s.78,1.52.54,2.37c-1.51,5.36-4.88,9.63-8.32,13.84Z"/><path class="cls-43" d="M160.35,198.63c-.26,1.8-.48,3.61-.8,5.41-.23,1.24-.08,3.1-1.75,3.12-1.94,0-2.32-2.14-2.15-3.37a39.69,39.69,0,0,1,2.1-7.12,1.23,1.23,0,0,1,1.55-.89C160.85,196.23,160.57,197.47,160.35,198.63Z"/><path class="cls-44" d="M186.36,204.07c2.82,3.79,4.32,8.18,5.59,12.64.32,1.13,1.69,2.88-.72,3.64l-6.24-15Z"/><path class="cls-45" d="M107.24,324.28c-.68,2.85-2.51,4.42-5.66,4.89a18.24,18.24,0,0,0-1.33-7c1.17-.56,2.84-3.35,3.45-.55C104.28,324.25,106.1,323.42,107.24,324.28Z"/><path class="cls-46" d="M37.26,54.18l-1.08,12.3-1.35.07c-1.25-3.5-.76-7.16,0-10.87.25-1.16,1.12-3.15-1.5-1.47-.08-1.26.42-2.39,1.63-2.6C36.85,51.28,36.11,53.64,37.26,54.18Z"/><path class="cls-47" d="M130.4,207c1.92,4.84,4.92,9.48,2.82,15.08-1.4-4-2.3-8-4.12-11.81C130.48,209.56,130,208.13,130.4,207Z"/><path class="cls-48" d="M125.31,350.12a54.21,54.21,0,0,1-12.21,6.53c1.43-3.67,4.2-4.21,6.13-5.69.89-.67,2.87-1,.9-2.69C122.59,346.84,123.35,350.15,125.31,350.12Z"/><path class="cls-49" d="M137.41,335.06l1.83-.95c1.7,1.79,3.35-.54,5-.07,1.12-.24,2.5-1.38,2.85.88-5.05.56-9.17,3.64-13.89,5.08l-1.8-2A15.55,15.55,0,0,1,137.41,335.06Z"/><path class="cls-50" d="M160.16,310c1.19-3.64,3.17-6.57,7.18-7.72-2.19,3.59-4.61,7-5.94,11C161,312.17,161.51,310.74,160.16,310Z"/><path class="cls-51" d="M147.12,334.92c-.72-1.05-1.91-.56-2.85-.88,4.61-2,10-1.3,14.44-4.06C155.7,333.62,151.43,334.34,147.12,334.92Z"/><path class="cls-52" d="M132.32,243.15c.23,2.59-.19,5.2.74,7.78.59,1.63,0,2.67-1.89,1.3-3.53-2.87-.95-6.87-1.9-10.22C130.48,240.69,130.74,240.78,132.32,243.15Z"/><path class="cls-53" d="M137.51,456l-.09-8c2.05-2.31-.43-5.69,1.87-7.94.15,4.76.17,9.52.5,14.26C139.94,456.55,139,456.46,137.51,456Z"/><path class="cls-54" d="M195.5,221l-3.09-10.87c1,.24,2.18-.28,3,.79-.53,3.39,3.27,5.75,2.19,9.27Z"/><path class="cls-55" d="M144.4,367.08c-.91-.21,1.59-3.74-1.66-1.7-1.64,1-2.58,3.1-5.29,3.38.61-3.59,3.39-5.05,5.64-6.91C144.58,363.33,146.85,364.61,144.4,367.08Z"/><path class="cls-56" d="M129.27,242c1.81,3.19,0,7.05,1.9,10.22-.28.64-.57,1.28-.86,1.92C127.91,250.28,127.33,246.25,129.27,242Z"/><path class="cls-57" d="M93.24,217.06c1.94,1.4,1,2.77,0,4.14-.33.36-.62.35-.86-.09-1.45-2.7-3.12-5.35-2.5-9C92.16,213.4,91.12,216.26,93.24,217.06Z"/><path class="cls-58" d="M111.2,446.07V459c-4.26-1.32-1.17-4.64-1.89-6.93C111.37,450.52,109.32,447.68,111.2,446.07Z"/><path class="cls-59" d="M197.55,220.16c-.91-2-1.81-4-2.74-6-.56-1.21-1.11-2.39.55-3.22q2.12,3.51,4.22,7Z"/><path class="cls-60" d="M75.3,257.16c-1.46-2.46-3.52-4.65-3.92-8.29a8.31,8.31,0,0,1,5,6.25C76,255.8,75.64,256.48,75.3,257.16Z"/><path class="cls-61" d="M43.36,195.13l-1,1.06c-3.8-.88-1.65-5.38-4.26-7l-1.61.07c2.71-2.23,5-3.11,5.68,1.68A31.39,31.39,0,0,0,43.36,195.13Z"/><path class="cls-62" d="M202.42,109.32,201.11,108a29.36,29.36,0,0,0,1.15-10.52A14.75,14.75,0,0,1,202.42,109.32Z"/><path class="cls-63" d="M92.34,221.11a4.12,4.12,0,0,0,.86.09c.53,1.44,2.46,2.18,2,4.53-2.17-.31-3.12-1.86-4.05-3.45Z"/><path class="cls-64" d="M205,240.17c-.2-4,1.37-7,3.49-10.2C209.41,233.6,208.44,236.38,205,240.17Z"/><path class="cls-65" d="M178.68,277.25c-.26,2.41-.77,4-2.7,4.67-.18.06-.85-.55-.84-.84C175.19,279.15,176.06,277.81,178.68,277.25Z"/><path class="cls-66" d="M38.08,189.21c4,.72,2.05,5.13,4.26,7,1,2.52,2,5.05,3,7.57C40.22,200.11,38.77,194.83,38.08,189.21Z"/><path class="cls-67" d="M36,167.16,37.14,182l-1.46.15c-1.72-4.86-2.52-9.81-1.21-15Z"/><path class="cls-68" d="M137.41,335.06c-1.59,1.81-3.29,3.39-6,2.93C132.52,335.17,134.21,333.58,137.41,335.06Z"/></g></g></svg>